<?xml version="1.0" encoding="UTF-8" standalone="no"?>
<svg
   xmlns:dc="http://purl.org/dc/elements/1.1/"
   xmlns:cc="http://creativecommons.org/ns#"
   xmlns:rdf="http://www.w3.org/1999/02/22-rdf-syntax-ns#"
   xmlns:svg="http://www.w3.org/2000/svg"
   xmlns="http://www.w3.org/2000/svg"
   xmlns:xlink="http://www.w3.org/1999/xlink"
   xmlns:sodipodi="http://sodipodi.sourceforge.net/DTD/sodipodi-0.dtd"
   xmlns:inkscape="http://www.inkscape.org/namespaces/inkscape"
   width="70mm"
   height="128.5mm"
   viewBox="0 0 70 128.5"
   version="1.1"
   id="svg89"
   inkscape:version="1.0.2-2 (e86c870879, 2021-01-15)"
   sodipodi:docname="Fader.svg">
  <defs
     id="defs83">
    <linearGradient
       inkscape:collect="always"
       id="linearGradient311">
      <stop
         style="stop-color:#ffd5d5;stop-opacity:1;"
         offset="0"
         id="stop307" />
      <stop
         style="stop-color:#ffaaaa;stop-opacity:1"
         offset="1"
         id="stop309" />
    </linearGradient>
    <linearGradient
       inkscape:collect="always"
       id="linearGradient298">
      <stop
         style="stop-color:#0000ff;stop-opacity:1;"
         offset="0"
         id="stop294" />
      <stop
         style="stop-color:#0000ff;stop-opacity:0;"
         offset="1"
         id="stop296" />
    </linearGradient>
    <radialGradient
       inkscape:collect="always"
       xlink:href="#linearGradient298"
       id="radialGradient300"
       cx="27.712278"
       cy="84.237602"
       fx="27.712278"
       fy="84.237602"
       r="35.5"
       gradientTransform="matrix(1.3042842,-2.4541835,1.5981815,0.84935635,-150.92791,117.22667)"
       gradientUnits="userSpaceOnUse" />
    <radialGradient
       inkscape:collect="always"
       xlink:href="#linearGradient311"
       id="radialGradient313"
       cx="59.531181"
       cy="30.942848"
       fx="59.531181"
       fy="30.942848"
       r="35.5"
       gradientTransform="matrix(0.88791388,-3.8909052,2.6064467,0.59477198,-73.978196,217.195)"
       gradientUnits="userSpaceOnUse" />
  </defs>
  <sodipodi:namedview
     id="base"
     pagecolor="#ffffff"
     bordercolor="#666666"
     borderopacity="1.0"
     inkscape:pageopacity="0.0"
     inkscape:pageshadow="2"
     inkscape:zoom="1.4"
     inkscape:cx="43.220255"
     inkscape:cy="160.70723"
     inkscape:document-units="mm"
     inkscape:current-layer="layer5"
     inkscape:document-rotation="0"
     showgrid="false"
     inkscape:window-width="1267"
     inkscape:window-height="1040"
     inkscape:window-x="2102"
     inkscape:window-y="0"
     inkscape:window-maximized="0" />
  <metadata
     id="metadata86">
    <rdf:RDF>
      <cc:Work
         rdf:about="">
        <dc:format>image/svg+xml</dc:format>
        <dc:type
           rdf:resource="http://purl.org/dc/dcmitype/StillImage" />
        <dc:title />
      </cc:Work>
    </rdf:RDF>
  </metadata>
  <g
     inkscape:label="Layer 1"
     inkscape:groupmode="layer"
     id="layer1"
     style="display:inline;opacity:0.75">
    <rect
       style="fill:#ffffff;stroke-width:0.495517"
       id="rect315"
       width="71"
       height="128.5"
       x="-8.8817842e-16"
       y="0" />
  </g>
  <g
     inkscape:groupmode="layer"
     id="layer3"
     inkscape:label="BG"
     style="display:inline">
    <rect
       style="fill:url(#radialGradient300);fill-opacity:1;stroke-width:0.787715"
       id="rect91"
       width="71"
       height="128.5"
       x="0"
       y="0" />
  </g>
  <g
     inkscape:groupmode="layer"
     id="layer4"
     inkscape:label="BG 2"
     style="display:inline;opacity:0.485577">
    <rect
       style="fill:url(#radialGradient313);fill-opacity:1;stroke-width:1.57858"
       id="rect305"
       x="0"
       y="0"
       height="128.5"
       width="71" />
  </g>
  <g
     inkscape:groupmode="layer"
     id="layer2"
     inkscape:label="text"
     style="display:inline">
    <g
       id="g292"
       transform="translate(-0.7187494,3.7041668)">
      <g
         aria-label="L"
         id="text916"
         style="font-size:4.58611px;line-height:1.25;font-family:Lato;-inkscape-font-specification:Lato;display:inline;stroke-width:0.264583"
         transform="translate(0.32867595,-1.9364616)">
        <path
           d="m 5.4966812,29.14617 v 0.373768 H 3.6324274 V 26.23399 h 0.4425597 v 2.91218 z"
           style="font-size:4.58611px;stroke-width:0.264583"
           id="path977" />
      </g>
      <g
         aria-label="R"
         id="text920"
         style="font-size:4.58611px;line-height:1.25;font-family:Lato;-inkscape-font-specification:Lato;display:inline;stroke-width:0.264583"
         transform="translate(-0.84139704,-1.9459086)">
        <path
           d="m 12.811,27.834825 q 0.192616,0 0.339372,-0.04586 0.149048,-0.04815 0.24765,-0.132997 0.100894,-0.08714 0.151341,-0.206375 0.05045,-0.119239 0.05045,-0.263701 0,-0.293511 -0.192616,-0.44256 -0.192617,-0.149048 -0.57785,-0.149048 h -0.486128 v 1.240543 z m 1.518002,1.694567 h -0.394405 q -0.121532,0 -0.178859,-0.09402 l -0.853016,-1.174044 q -0.03898,-0.05503 -0.08484,-0.07796 -0.04357,-0.02522 -0.137584,-0.02522 h -0.337079 v 1.371247 H 11.90066 v -3.285948 h 0.928687 q 0.311855,0 0.538868,0.06421 0.227012,0.06191 0.373768,0.181151 0.149048,0.119239 0.220133,0.288925 0.07109,0.167393 0.07109,0.376061 0,0.174272 -0.05503,0.325614 -0.05503,0.151342 -0.160514,0.272874 -0.103188,0.119238 -0.254529,0.204081 -0.149049,0.08484 -0.339373,0.128412 0.08484,0.04815 0.146756,0.139876 z"
           style="font-size:4.58611px;stroke-width:0.264583"
           id="path980" />
      </g>
      <g
         aria-label="L"
         id="g1035"
         style="font-size:4.58611px;line-height:1.25;font-family:Lato;-inkscape-font-specification:Lato;display:inline;stroke-width:0.264583"
         transform="translate(56.070603,-1.9364616)">
        <path
           d="m 5.4966812,29.14617 v 0.373768 H 3.6324274 V 26.23399 h 0.4425597 v 2.91218 z"
           style="font-size:4.58611px;stroke-width:0.264583"
           id="path1033" />
      </g>
      <g
         aria-label="R"
         id="g1039"
         style="font-size:4.58611px;line-height:1.25;font-family:Lato;-inkscape-font-specification:Lato;display:inline;stroke-width:0.264583"
         transform="translate(54.695442,-1.9459086)">
        <path
           d="m 12.811,27.834825 q 0.192616,0 0.339372,-0.04586 0.149048,-0.04815 0.24765,-0.132997 0.100894,-0.08714 0.151341,-0.206375 0.05045,-0.119239 0.05045,-0.263701 0,-0.293511 -0.192616,-0.44256 -0.192617,-0.149048 -0.57785,-0.149048 h -0.486128 v 1.240543 z m 1.518002,1.694567 h -0.394405 q -0.121532,0 -0.178859,-0.09402 l -0.853016,-1.174044 q -0.03898,-0.05503 -0.08484,-0.07796 -0.04357,-0.02522 -0.137584,-0.02522 h -0.337079 v 1.371247 H 11.90066 v -3.285948 h 0.928687 q 0.311855,0 0.538868,0.06421 0.227012,0.06191 0.373768,0.181151 0.149048,0.119239 0.220133,0.288925 0.07109,0.167393 0.07109,0.376061 0,0.174272 -0.05503,0.325614 -0.05503,0.151342 -0.160514,0.272874 -0.103188,0.119238 -0.254529,0.204081 -0.149049,0.08484 -0.339373,0.128412 0.08484,0.04815 0.146756,0.139876 z"
           style="font-size:4.58611px;stroke-width:0.264583"
           id="path1037" />
      </g>
      <g
         aria-label="Inputs"
         id="text908"
         style="font-size:4.58611px;line-height:1.25;font-family:Lato;-inkscape-font-specification:Lato;display:inline;stroke-width:0.264583"
         transform="translate(1.27527,-1.9364616)">
        <path
           d="M 1.5826374,24.946432 H 1.1377848 v -3.285948 h 0.4448526 z"
           style="font-size:4.58611px;stroke-width:0.264583"
           id="path964" />
        <path
           d="m 2.6764118,22.960646 q 0.075671,-0.08484 0.1605138,-0.153634 0.084843,-0.06879 0.1788583,-0.116946 0.096308,-0.05045 0.2017889,-0.07567 0.1077736,-0.02752 0.2315985,-0.02752 0.1903236,0 0.3347861,0.06421 0.1467555,0.06191 0.2430638,0.178858 0.098601,0.114653 0.1490486,0.27746 0.050447,0.162807 0.050447,0.36001 v 1.47902 H 3.8160602 v -1.47902 q 0,-0.263702 -0.121532,-0.408164 -0.1192388,-0.146756 -0.3645957,-0.146756 -0.1811514,0 -0.3393722,0.08714 -0.1559277,0.08714 -0.2889249,0.236185 v 1.710619 H 2.2911785 v -2.322865 h 0.2453569 q 0.087136,0 0.1077736,0.08484 z"
           style="font-size:4.58611px;stroke-width:0.264583"
           id="path966" />
        <path
           d="m 5.2606787,24.386927 q 0.1123597,0.151341 0.2453569,0.213254 0.1329972,0.06191 0.2980971,0.06191 0.3256139,0 0.499886,-0.231598 0.1742722,-0.231599 0.1742722,-0.6604 0,-0.227013 -0.041275,-0.389819 -0.038982,-0.162807 -0.1146527,-0.265995 -0.075671,-0.10548 -0.1857375,-0.153635 -0.1100666,-0.04815 -0.249943,-0.04815 -0.1994958,0 -0.3508374,0.09172 -0.1490486,0.09172 -0.2751666,0.259116 z m -0.020637,-1.40335 q 0.1467555,-0.181151 0.3393721,-0.291218 0.1926167,-0.110067 0.4402666,-0.110067 0.2017889,0 0.3645958,0.07796 0.1628069,0.07567 0.2774596,0.227013 0.1146528,0.149048 0.1765653,0.371475 0.061913,0.222426 0.061913,0.511351 0,0.256822 -0.068792,0.479248 -0.068792,0.220134 -0.1994958,0.382941 -0.1284111,0.160513 -0.3164416,0.254529 -0.1857374,0.09172 -0.4196291,0.09172 -0.2132541,0 -0.3668888,-0.07109 -0.1513416,-0.07338 -0.2682874,-0.201789 v 1.0273 H 4.8502218 v -3.109383 h 0.2453569 q 0.087136,0 0.1077736,0.08484 z"
           style="font-size:4.58611px;stroke-width:0.264583"
           id="path968" />
        <path
           d="m 9.3308476,22.623567 v 2.322865 H 9.0877837 q -0.087136,0 -0.1100666,-0.08484 l -0.032103,-0.249943 q -0.1513416,0.167393 -0.3393721,0.270581 -0.1880306,0.100894 -0.4310944,0.100894 -0.1903236,0 -0.3370791,-0.06191 -0.1444625,-0.06421 -0.2430638,-0.178859 -0.098601,-0.114653 -0.1490486,-0.277459 -0.048154,-0.162807 -0.048154,-0.36001 v -1.481314 h 0.4081638 v 1.481314 q 0,0.263701 0.1192389,0.408164 0.1215319,0.144462 0.3691819,0.144462 0.1811513,0 0.3370791,-0.08484 0.1582208,-0.08714 0.291218,-0.238478 v -1.710619 z"
           style="font-size:4.58611px;stroke-width:0.264583"
           id="path970" />
        <path
           d="m 10.690624,24.983121 q -0.275167,0 -0.424215,-0.153635 -0.146756,-0.153634 -0.146756,-0.442559 V 22.965233 H 9.8399006 q -0.036689,0 -0.061912,-0.02064 -0.025224,-0.02293 -0.025224,-0.06879 v -0.162807 l 0.3806474,-0.04815 0.09402,-0.717726 q 0.0069,-0.0344 0.02981,-0.05503 0.02522,-0.02293 0.0642,-0.02293 h 0.206375 v 0.800276 h 0.671865 v 0.295805 h -0.671865 v 1.394177 q 0,0.146756 0.07109,0.21784 0.07109,0.07109 0.183444,0.07109 0.06421,0 0.110067,-0.01605 0.04815,-0.01835 0.08255,-0.03898 0.0344,-0.02064 0.05733,-0.03669 0.02522,-0.01835 0.04357,-0.01835 0.0321,0 0.05733,0.03898 l 0.119239,0.19491 q -0.105481,0.0986 -0.25453,0.155928 -0.149048,0.05503 -0.307269,0.05503 z"
           style="font-size:4.58611px;stroke-width:0.264583"
           id="path972" />
        <path
           d="m 12.974505,23.006508 q -0.02752,0.05045 -0.08484,0.05045 -0.0344,0 -0.07796,-0.02522 -0.04357,-0.02522 -0.107774,-0.05503 -0.06191,-0.0321 -0.149048,-0.05733 -0.08714,-0.02752 -0.206375,-0.02752 -0.103188,0 -0.185738,0.02752 -0.08255,0.02522 -0.142169,0.07108 -0.05733,0.04586 -0.08943,0.107774 -0.02981,0.05962 -0.02981,0.130704 0,0.08943 0.05045,0.149048 0.05274,0.05962 0.137583,0.103188 0.08484,0.04357 0.192617,0.07796 0.107774,0.0321 0.220133,0.07109 0.114653,0.03669 0.222427,0.08255 0.107773,0.04586 0.192616,0.114653 0.08484,0.06879 0.135291,0.169686 0.05274,0.0986 0.05274,0.238478 0,0.160514 -0.05733,0.298097 -0.05733,0.13529 -0.169686,0.236185 -0.112359,0.0986 -0.275166,0.155928 -0.162807,0.05733 -0.376061,0.05733 -0.243064,0 -0.440267,-0.07796 -0.197203,-0.08026 -0.334786,-0.204082 l 0.09631,-0.155928 q 0.01835,-0.02981 0.04357,-0.04586 0.02522,-0.01605 0.06421,-0.01605 0.04127,0 0.08714,0.0321 0.04586,0.0321 0.110067,0.07108 0.0665,0.03898 0.160514,0.07109 0.09402,0.0321 0.233891,0.0321 0.119239,0 0.208668,-0.02981 0.08943,-0.0321 0.149049,-0.08484 0.05962,-0.05274 0.08714,-0.121532 0.02981,-0.06879 0.02981,-0.146755 0,-0.09631 -0.05274,-0.158221 -0.05045,-0.06421 -0.13529,-0.107774 -0.08484,-0.04586 -0.19491,-0.07796 -0.107773,-0.03439 -0.222426,-0.07108 -0.11236,-0.03669 -0.222426,-0.08255 -0.107774,-0.04815 -0.192617,-0.119239 -0.08484,-0.07109 -0.137583,-0.174272 -0.05045,-0.105481 -0.05045,-0.254529 0,-0.132998 0.05503,-0.254529 0.05503,-0.123825 0.160514,-0.215548 0.10548,-0.09401 0.259115,-0.149048 0.153635,-0.05503 0.350837,-0.05503 0.229306,0 0.410457,0.07338 0.183445,0.07109 0.316442,0.197203 z"
           style="font-size:4.58611px;stroke-width:0.264583"
           id="path974" />
      </g>
      <g
         aria-label="Trigger"
         id="text924"
         style="font-size:4.58611px;line-height:1.25;font-family:Lato;-inkscape-font-specification:Lato;display:inline;stroke-width:0.264583"
         transform="translate(-0.31223003,-1.6638686)">
        <path
           d="m 20.520063,23.660793 h -1.063977 v 2.91218 h -0.44256 v -2.91218 h -1.066271 v -0.373768 h 2.572808 z"
           style="font-size:4.58611px;stroke-width:0.264583"
           id="path983" />
        <path
           d="m 20.792933,24.715599 q 0.110067,-0.238478 0.270581,-0.371475 0.160514,-0.135291 0.392112,-0.135291 0.07338,0 0.139877,0.01605 0.06879,0.01605 0.121532,0.05045 l -0.02981,0.304976 q -0.01376,0.05733 -0.06879,0.05733 -0.0321,0 -0.09401,-0.01376 -0.06191,-0.01376 -0.139876,-0.01376 -0.110067,0 -0.197203,0.0321 -0.08484,0.0321 -0.153635,0.09631 -0.0665,0.06191 -0.121532,0.155928 -0.05274,0.09172 -0.09631,0.210961 v 1.467555 h -0.410457 v -2.322865 h 0.233892 q 0.0665,0 0.09172,0.02522 0.02522,0.02522 0.0344,0.08714 z"
           style="font-size:4.58611px;stroke-width:0.264583"
           id="path985" />
        <path
           d="m 22.505838,24.250108 v 2.322865 h -0.408164 v -2.322865 z m 0.08714,-0.729191 q 0,0.05962 -0.02522,0.11236 -0.02293,0.05045 -0.06421,0.09172 -0.03898,0.03898 -0.09401,0.06191 -0.05274,0.02293 -0.11236,0.02293 -0.05962,0 -0.112359,-0.02293 -0.05045,-0.02293 -0.08943,-0.06191 -0.03898,-0.04127 -0.06191,-0.09172 -0.02293,-0.05274 -0.02293,-0.11236 0,-0.05962 0.02293,-0.11236 0.02293,-0.05503 0.06191,-0.09401 0.03898,-0.04127 0.08943,-0.06421 0.05274,-0.02293 0.112359,-0.02293 0.05962,0 0.11236,0.02293 0.05503,0.02293 0.09401,0.06421 0.04128,0.03898 0.06421,0.09401 0.02522,0.05274 0.02522,0.11236 z"
           style="font-size:4.58611px;stroke-width:0.264583"
           id="path987" />
        <path
           d="m 23.984858,25.437911 q 0.123825,0 0.21784,-0.0344 0.09401,-0.0344 0.158221,-0.09631 0.06421,-0.06191 0.09631,-0.146756 0.0321,-0.08714 0.0321,-0.190323 0,-0.213254 -0.130704,-0.339372 -0.128411,-0.126118 -0.373768,-0.126118 -0.24765,0 -0.378354,0.126118 -0.128412,0.126118 -0.128412,0.339372 0,0.103187 0.0321,0.190323 0.0344,0.08484 0.0986,0.146756 0.06421,0.06191 0.15822,0.09631 0.09402,0.0344 0.217841,0.0344 z m 0.73607,1.26118 q 0,-0.08484 -0.04815,-0.137583 -0.04815,-0.05274 -0.130704,-0.08255 -0.08026,-0.02981 -0.18803,-0.04127 -0.107774,-0.01376 -0.229306,-0.02064 -0.119239,-0.0069 -0.243064,-0.01376 -0.123825,-0.0069 -0.238478,-0.02293 -0.128411,0.05962 -0.210961,0.151341 -0.08026,0.08943 -0.08026,0.210961 0,0.07796 0.03898,0.144463 0.04128,0.06879 0.123825,0.116946 0.08255,0.05045 0.206375,0.07796 0.126118,0.02981 0.295804,0.02981 0.1651,0 0.295805,-0.02981 0.130704,-0.02981 0.220133,-0.08484 0.09172,-0.05503 0.139876,-0.130704 0.04815,-0.07567 0.04815,-0.167393 z m 0.415043,-2.35726 v 0.151341 q 0,0.07567 -0.09631,0.09631 l -0.263701,0.03439 q 0.07796,0.151342 0.07796,0.334786 0,0.169687 -0.0665,0.309563 -0.06421,0.137583 -0.178858,0.236185 -0.114653,0.0986 -0.275167,0.151341 -0.160514,0.05274 -0.348544,0.05274 -0.162807,0 -0.30727,-0.03898 -0.07338,0.04586 -0.112359,0.0986 -0.03898,0.05045 -0.03898,0.103187 0,0.08255 0.0665,0.126118 0.06879,0.04127 0.178859,0.05962 0.110066,0.01834 0.249943,0.02293 0.142169,0.0046 0.288924,0.01605 0.149049,0.0092 0.288925,0.0344 0.14217,0.02522 0.252236,0.08255 0.110067,0.05733 0.176566,0.15822 0.06879,0.100895 0.06879,0.261409 0,0.149048 -0.07567,0.288925 -0.07338,0.139876 -0.213255,0.24765 -0.139876,0.110066 -0.343958,0.174272 -0.201789,0.0665 -0.456318,0.0665 -0.254529,0 -0.444852,-0.05045 -0.190324,-0.05045 -0.316442,-0.13529 -0.126118,-0.08484 -0.190324,-0.197203 -0.06191,-0.110066 -0.06191,-0.231598 0,-0.17198 0.107773,-0.291218 0.107774,-0.119239 0.295805,-0.190324 -0.103188,-0.04586 -0.1651,-0.121532 -0.05962,-0.07796 -0.05962,-0.208668 0,-0.05045 0.01835,-0.103187 0.01834,-0.05503 0.05503,-0.107774 0.03898,-0.05503 0.09402,-0.103187 0.05503,-0.04815 0.128411,-0.08484 -0.171979,-0.09631 -0.268287,-0.25453 -0.09631,-0.160513 -0.09631,-0.371475 0,-0.169686 0.06421,-0.307269 0.0665,-0.139876 0.183444,-0.236185 0.116946,-0.0986 0.27746,-0.151341 0.162807,-0.05274 0.355424,-0.05274 0.151341,0 0.282045,0.03439 0.130705,0.0321 0.238478,0.09631 z"
           style="font-size:4.58611px;stroke-width:0.264583"
           id="path989" />
        <path
           d="m 26.360452,25.437911 q 0.123825,0 0.21784,-0.0344 0.09402,-0.0344 0.158221,-0.09631 0.06421,-0.06191 0.09631,-0.146756 0.0321,-0.08714 0.0321,-0.190323 0,-0.213254 -0.130704,-0.339372 -0.128411,-0.126118 -0.373768,-0.126118 -0.24765,0 -0.378354,0.126118 -0.128411,0.126118 -0.128411,0.339372 0,0.103187 0.0321,0.190323 0.0344,0.08484 0.0986,0.146756 0.06421,0.06191 0.158221,0.09631 0.09401,0.0344 0.21784,0.0344 z m 0.736071,1.26118 q 0,-0.08484 -0.04815,-0.137583 -0.04815,-0.05274 -0.130704,-0.08255 -0.08026,-0.02981 -0.188031,-0.04127 -0.107773,-0.01376 -0.229305,-0.02064 -0.119239,-0.0069 -0.243064,-0.01376 -0.123825,-0.0069 -0.238478,-0.02293 -0.128411,0.05962 -0.210961,0.151341 -0.08026,0.08943 -0.08026,0.210961 0,0.07796 0.03898,0.144463 0.04127,0.06879 0.123825,0.116946 0.08255,0.05045 0.206375,0.07796 0.126118,0.02981 0.295804,0.02981 0.1651,0 0.295804,-0.02981 0.130704,-0.02981 0.220133,-0.08484 0.09172,-0.05503 0.139877,-0.130704 0.04815,-0.07567 0.04815,-0.167393 z m 0.415043,-2.35726 v 0.151341 q 0,0.07567 -0.09631,0.09631 l -0.263702,0.03439 q 0.07796,0.151342 0.07796,0.334786 0,0.169687 -0.0665,0.309563 -0.06421,0.137583 -0.178859,0.236185 -0.114653,0.0986 -0.275166,0.151341 -0.160514,0.05274 -0.348545,0.05274 -0.162807,0 -0.307269,-0.03898 -0.07338,0.04586 -0.11236,0.0986 -0.03898,0.05045 -0.03898,0.103187 0,0.08255 0.0665,0.126118 0.06879,0.04127 0.178858,0.05962 0.110067,0.01834 0.249943,0.02293 0.14217,0.0046 0.288925,0.01605 0.149049,0.0092 0.288925,0.0344 0.142169,0.02522 0.252236,0.08255 0.110067,0.05733 0.176565,0.15822 0.06879,0.100895 0.06879,0.261409 0,0.149048 -0.07567,0.288925 -0.07338,0.139876 -0.213254,0.24765 -0.139876,0.110066 -0.343958,0.174272 -0.201789,0.0665 -0.456318,0.0665 -0.254529,0 -0.444853,-0.05045 -0.190323,-0.05045 -0.316441,-0.13529 -0.126118,-0.08484 -0.190324,-0.197203 -0.06191,-0.110066 -0.06191,-0.231598 0,-0.17198 0.107774,-0.291218 0.107774,-0.119239 0.295804,-0.190324 -0.103187,-0.04586 -0.1651,-0.121532 -0.05962,-0.07796 -0.05962,-0.208668 0,-0.05045 0.01834,-0.103187 0.01835,-0.05503 0.05503,-0.107774 0.03898,-0.05503 0.09402,-0.103187 0.05503,-0.04815 0.128411,-0.08484 -0.171979,-0.09631 -0.268288,-0.25453 -0.09631,-0.160513 -0.09631,-0.371475 0,-0.169686 0.06421,-0.307269 0.0665,-0.139876 0.183444,-0.236185 0.116946,-0.0986 0.27746,-0.151341 0.162807,-0.05274 0.355423,-0.05274 0.151342,0 0.282046,0.03439 0.130704,0.0321 0.238478,0.09631 z"
           style="font-size:4.58611px;stroke-width:0.264583"
           id="path991" />
        <path
           d="m 29.453771,25.158158 q 0,-0.142169 -0.04127,-0.259115 -0.03898,-0.119239 -0.116946,-0.204082 -0.07567,-0.08714 -0.185737,-0.132997 -0.110067,-0.04815 -0.249943,-0.04815 -0.293511,0 -0.46549,0.171979 -0.169686,0.169686 -0.210961,0.472369 z m 0.3302,1.089201 q -0.07567,0.09172 -0.181151,0.160514 -0.105481,0.0665 -0.227013,0.110067 -0.119239,0.04357 -0.24765,0.06421 -0.128411,0.02293 -0.254529,0.02293 -0.240771,0 -0.444853,-0.08026 -0.201788,-0.08255 -0.350837,-0.238478 -0.146756,-0.15822 -0.229306,-0.389819 -0.08255,-0.231599 -0.08255,-0.531989 0,-0.243064 0.07338,-0.454025 0.07567,-0.210961 0.215547,-0.364595 0.139877,-0.155928 0.341666,-0.243064 0.201788,-0.08943 0.454025,-0.08943 0.208668,0 0.385233,0.07108 0.178858,0.06879 0.307269,0.201789 0.130704,0.130704 0.204082,0.325614 0.07338,0.192617 0.07338,0.440267 0,0.09631 -0.02064,0.128411 -0.02064,0.0321 -0.07796,0.0321 H 28.16966 q 0.0069,0.220134 0.05962,0.382941 0.05503,0.162806 0.151341,0.272873 0.09631,0.107774 0.229306,0.162807 0.132997,0.05274 0.298097,0.05274 0.153635,0 0.263701,-0.0344 0.11236,-0.03669 0.192617,-0.07796 0.08026,-0.04128 0.132997,-0.07567 0.05503,-0.03669 0.09401,-0.03669 0.05045,0 0.07796,0.03898 z"
           style="font-size:4.58611px;stroke-width:0.264583"
           id="path993" />
        <path
           d="m 30.708072,24.715599 q 0.110067,-0.238478 0.27058,-0.371475 0.160514,-0.135291 0.392113,-0.135291 0.07338,0 0.139876,0.01605 0.06879,0.01605 0.121532,0.05045 l -0.02981,0.304976 q -0.01376,0.05733 -0.06879,0.05733 -0.0321,0 -0.09402,-0.01376 -0.06191,-0.01376 -0.139876,-0.01376 -0.110067,0 -0.197203,0.0321 -0.08484,0.0321 -0.153634,0.09631 -0.0665,0.06191 -0.121532,0.155928 -0.05274,0.09172 -0.09631,0.210961 v 1.467555 h -0.410456 v -2.322865 h 0.233891 q 0.0665,0 0.09172,0.02522 0.02522,0.02522 0.0344,0.08714 z"
           style="font-size:4.58611px;stroke-width:0.264583"
           id="path995" />
      </g>
      <g
         aria-label="Time"
         id="text928"
         style="font-size:4.58611px;line-height:1.25;font-family:Lato;-inkscape-font-specification:Lato;display:inline;stroke-width:0.264583"
         transform="translate(1.27527,-1.9661496)">
        <path
           d="m 35.562944,23.963074 h -1.063977 v 2.91218 h -0.44256 v -2.91218 h -1.066271 v -0.373768 h 2.572808 z"
           style="font-size:4.58611px;stroke-width:0.264583"
           id="path998" />
        <path
           d="m 36.370098,24.552389 v 2.322865 h -0.408164 v -2.322865 z m 0.08714,-0.729192 q 0,0.05962 -0.02522,0.11236 -0.02293,0.05045 -0.06421,0.09172 -0.03898,0.03898 -0.09402,0.06191 -0.05274,0.02293 -0.112359,0.02293 -0.05962,0 -0.11236,-0.02293 -0.05045,-0.02293 -0.08943,-0.06191 -0.03898,-0.04127 -0.06191,-0.09172 -0.02293,-0.05274 -0.02293,-0.11236 0,-0.05962 0.02293,-0.112359 0.02293,-0.05503 0.06191,-0.09402 0.03898,-0.04127 0.08943,-0.0642 0.05274,-0.02293 0.11236,-0.02293 0.05962,0 0.112359,0.02293 0.05503,0.02293 0.09402,0.0642 0.04128,0.03898 0.06421,0.09402 0.02522,0.05274 0.02522,0.112359 z"
           style="font-size:4.58611px;stroke-width:0.264583"
           id="path1000" />
        <path
           d="m 37.039669,26.875254 v -2.322865 h 0.245357 q 0.08714,0 0.107773,0.08484 l 0.02981,0.238478 q 0.128411,-0.158221 0.288925,-0.259116 0.160514,-0.100894 0.371475,-0.100894 0.233891,0 0.378354,0.130704 0.146755,0.130704 0.210961,0.353131 0.05045,-0.126118 0.128411,-0.217841 0.08026,-0.09172 0.178858,-0.151341 0.0986,-0.05962 0.208668,-0.08714 0.11236,-0.02752 0.227013,-0.02752 0.183444,0 0.325614,0.05962 0.144462,0.05733 0.243063,0.169687 0.100895,0.112359 0.153635,0.277459 0.05274,0.162807 0.05274,0.373768 v 1.479021 h -0.410457 v -1.479021 q 0,-0.272873 -0.119238,-0.41275 -0.119239,-0.142169 -0.343959,-0.142169 -0.100894,0 -0.192616,0.03669 -0.08943,0.0344 -0.158221,0.103187 -0.06879,0.06879 -0.110067,0.174272 -0.03898,0.103188 -0.03898,0.240771 v 1.479021 H 38.40633 v -1.479021 q 0,-0.279753 -0.11236,-0.417336 -0.11236,-0.137583 -0.327907,-0.137583 -0.151342,0 -0.279753,0.08255 -0.128411,0.08026 -0.236184,0.220133 v 1.731257 z"
           style="font-size:4.58611px;stroke-width:0.264583"
           id="path1002" />
        <path
           d="m 42.366428,25.460439 q 0,-0.14217 -0.04127,-0.259116 -0.03898,-0.119238 -0.116946,-0.204081 -0.07567,-0.08714 -0.185737,-0.132998 -0.110067,-0.04815 -0.249943,-0.04815 -0.293511,0 -0.465491,0.171979 -0.169686,0.169686 -0.210961,0.47237 z m 0.3302,1.089201 q -0.07567,0.09172 -0.181152,0.160514 -0.10548,0.0665 -0.227012,0.110066 -0.119239,0.04357 -0.24765,0.06421 -0.128411,0.02293 -0.254529,0.02293 -0.240771,0 -0.444853,-0.08026 -0.201789,-0.08255 -0.350837,-0.238478 -0.146756,-0.158221 -0.229306,-0.38982 -0.08255,-0.231598 -0.08255,-0.531988 0,-0.243064 0.07338,-0.454025 0.07567,-0.210961 0.215547,-0.364596 0.139877,-0.155928 0.341665,-0.243064 0.201789,-0.08943 0.454025,-0.08943 0.208668,0 0.385234,0.07109 0.178858,0.06879 0.307269,0.201789 0.130704,0.130704 0.204082,0.325613 0.07338,0.192617 0.07338,0.440267 0,0.09631 -0.02064,0.128411 -0.02064,0.0321 -0.07796,0.0321 h -1.552398 q 0.0069,0.220133 0.05962,0.38294 0.05503,0.162807 0.151342,0.272874 0.09631,0.107773 0.229306,0.162806 0.132997,0.05274 0.298097,0.05274 0.153634,0 0.263701,-0.0344 0.11236,-0.03669 0.192617,-0.07796 0.08026,-0.04127 0.132997,-0.07567 0.05503,-0.03669 0.09401,-0.03669 0.05045,0 0.07796,0.03898 z"
           style="font-size:4.58611px;stroke-width:0.264583"
           id="path1004" />
      </g>
      <g
         aria-label="Slope"
         id="text1054"
         style="font-size:4.58611px;line-height:1.25;font-family:Lato;-inkscape-font-specification:Lato;display:inline;stroke-width:0.264583"
         transform="translate(0.74610296,-1.9364616)">
        <path
           d="m 47.267663,24.105367 q -0.02064,0.0344 -0.04586,0.05274 -0.02293,0.01605 -0.05733,0.01605 -0.03898,0 -0.09172,-0.03898 -0.05274,-0.03898 -0.132998,-0.08484 -0.07796,-0.04815 -0.190323,-0.08714 -0.110067,-0.03898 -0.268288,-0.03898 -0.149048,0 -0.263701,0.04127 -0.11236,0.03898 -0.190323,0.107774 -0.07567,0.06879 -0.114653,0.162807 -0.03898,0.09172 -0.03898,0.199496 0,0.137583 0.0665,0.229305 0.06879,0.08943 0.178859,0.153635 0.112359,0.06421 0.252236,0.11236 0.142169,0.04586 0.288925,0.09631 0.149048,0.05045 0.288925,0.114653 0.142169,0.06191 0.252236,0.15822 0.112359,0.09631 0.178858,0.236185 0.06879,0.139876 0.06879,0.343958 0,0.215548 -0.07338,0.405871 -0.07338,0.188031 -0.215547,0.327907 -0.139877,0.139876 -0.346252,0.220133 -0.204081,0.08026 -0.46549,0.08026 -0.321027,0 -0.582436,-0.114653 -0.261408,-0.116945 -0.447145,-0.314148 l 0.128411,-0.210961 q 0.01834,-0.02522 0.04357,-0.04127 0.02752,-0.01835 0.05962,-0.01835 0.02981,0 0.0665,0.02522 0.03898,0.02293 0.08714,0.05962 0.04815,0.03669 0.110066,0.08026 0.06191,0.04357 0.139877,0.08026 0.08026,0.03669 0.181151,0.06191 0.100895,0.02293 0.227013,0.02293 0.15822,0 0.282045,-0.04357 0.123825,-0.04357 0.208668,-0.121532 0.08714,-0.08026 0.132998,-0.190323 0.04586,-0.110067 0.04586,-0.245357 0,-0.149049 -0.06879,-0.243064 -0.0665,-0.09631 -0.176565,-0.160514 -0.110067,-0.0642 -0.252236,-0.107773 -0.14217,-0.04586 -0.288925,-0.09172 -0.146756,-0.04815 -0.288925,-0.110066 -0.14217,-0.06191 -0.252236,-0.160514 -0.110067,-0.0986 -0.178859,-0.245357 -0.0665,-0.149049 -0.0665,-0.366889 0,-0.174272 0.0665,-0.337079 0.06879,-0.162807 0.197203,-0.288925 0.130704,-0.126118 0.318735,-0.201789 0.190323,-0.07567 0.43568,-0.07567 0.275167,0 0.499886,0.08714 0.227013,0.08714 0.398992,0.252236 z"
           style="font-size:4.58611px;stroke-width:0.264583"
           id="path1056" />
        <path
           d="m 48.361444,23.5 v 3.37767 H 47.95328 V 23.5 Z"
           style="font-size:4.58611px;stroke-width:0.264583"
           id="path1058" />
        <path
           d="m 50.000969,24.518117 q 0.25453,0 0.458612,0.08484 0.204081,0.08484 0.348544,0.24077 0.144462,0.155928 0.220133,0.378355 0.07796,0.220133 0.07796,0.493006 0,0.275167 -0.07796,0.4953 -0.07567,0.220134 -0.220133,0.376061 -0.144463,0.155928 -0.348544,0.240771 -0.204082,0.08255 -0.458612,0.08255 -0.256822,0 -0.463197,-0.08255 -0.204082,-0.08484 -0.348544,-0.240771 -0.144462,-0.155927 -0.222426,-0.376061 -0.07567,-0.220133 -0.07567,-0.4953 0,-0.272873 0.07567,-0.493006 0.07796,-0.222427 0.222426,-0.378355 0.144462,-0.155927 0.348544,-0.24077 0.206375,-0.08484 0.463197,-0.08484 z m 0,2.072921 q 0.343959,0 0.513645,-0.229305 0.169686,-0.231599 0.169686,-0.644349 0,-0.415043 -0.169686,-0.646641 -0.169686,-0.231599 -0.513645,-0.231599 -0.174272,0 -0.304976,0.05962 -0.128411,0.05962 -0.215547,0.171979 -0.08484,0.11236 -0.128411,0.27746 -0.04127,0.162806 -0.04127,0.369181 0,0.41275 0.169686,0.644349 0.171979,0.229305 0.520523,0.229305 z"
           style="font-size:4.58611px;stroke-width:0.264583"
           id="path1060" />
        <path
           d="m 52.032613,26.318165 q 0.11236,0.151341 0.245357,0.213254 0.132997,0.06191 0.298097,0.06191 0.325614,0 0.499886,-0.231598 0.174273,-0.231599 0.174273,-0.6604 0,-0.227012 -0.04127,-0.389819 -0.03898,-0.162807 -0.114653,-0.265995 -0.07567,-0.10548 -0.185738,-0.153634 -0.110066,-0.04815 -0.249943,-0.04815 -0.199495,0 -0.350837,0.09172 -0.149049,0.09172 -0.275167,0.259115 z m -0.02064,-1.40335 q 0.146755,-0.181151 0.339372,-0.291218 0.192617,-0.110066 0.440267,-0.110066 0.201788,0 0.364595,0.07796 0.162807,0.07567 0.27746,0.227013 0.114653,0.149048 0.176565,0.371475 0.06191,0.222426 0.06191,0.511351 0,0.256822 -0.06879,0.479249 -0.06879,0.220133 -0.199496,0.38294 -0.128411,0.160514 -0.316441,0.254529 -0.185738,0.09172 -0.419629,0.09172 -0.213254,0 -0.366889,-0.07109 -0.151342,-0.07338 -0.268288,-0.201788 v 1.027288 h -0.410456 v -3.109382 h 0.245356 q 0.08714,0 0.107774,0.08484 z"
           style="font-size:4.58611px;stroke-width:0.264583"
           id="path1062" />
        <path
           d="m 55.747359,25.462855 q 0,-0.142169 -0.04128,-0.259115 -0.03898,-0.119239 -0.116946,-0.204082 -0.07567,-0.08714 -0.185738,-0.132997 -0.110066,-0.04815 -0.249943,-0.04815 -0.293511,0 -0.46549,0.171979 -0.169686,0.169686 -0.210961,0.472369 z m 0.3302,1.089201 q -0.07567,0.09172 -0.181152,0.160514 -0.10548,0.0665 -0.227012,0.110067 -0.119239,0.04357 -0.24765,0.06421 -0.128411,0.02293 -0.254529,0.02293 -0.240771,0 -0.444853,-0.08026 -0.201789,-0.08255 -0.350837,-0.238478 -0.146756,-0.15822 -0.229306,-0.389819 -0.08255,-0.231599 -0.08255,-0.531989 0,-0.243064 0.07338,-0.454025 0.07567,-0.210961 0.215547,-0.364595 0.139876,-0.155928 0.341665,-0.243064 0.201789,-0.08943 0.454025,-0.08943 0.208668,0 0.385233,0.07108 0.178859,0.06879 0.30727,0.201789 0.130704,0.130704 0.204082,0.325614 0.07338,0.192617 0.07338,0.440267 0,0.09631 -0.02064,0.128411 -0.02064,0.0321 -0.07796,0.0321 h -1.552398 q 0.0069,0.220134 0.05962,0.382941 0.05503,0.162807 0.151342,0.272873 0.09631,0.107774 0.229305,0.162807 0.132998,0.05274 0.298098,0.05274 0.153634,0 0.263701,-0.03439 0.11236,-0.03669 0.192617,-0.07796 0.08026,-0.04128 0.132997,-0.07567 0.05503,-0.03669 0.09401,-0.03669 0.05045,0 0.07796,0.03898 z"
           style="font-size:4.58611px;stroke-width:0.264583"
           id="path1064" />
      </g>
      <g
         aria-label="Out"
         id="text1043"
         style="font-size:4.58611px;line-height:1.25;font-family:Lato;-inkscape-font-specification:Lato;display:inline;stroke-width:0.264583"
         transform="translate(-1.753971,-1.9364616)">
        <path
           d="m 64.990161,23.280809 q 0,0.369181 -0.116946,0.678744 -0.116946,0.307269 -0.3302,0.529696 -0.213254,0.222426 -0.513644,0.346251 -0.298097,0.121532 -0.6604,0.121532 -0.362303,0 -0.6604,-0.121532 -0.298097,-0.123825 -0.511351,-0.346251 -0.213254,-0.222427 -0.3302,-0.529696 -0.116946,-0.309563 -0.116946,-0.678744 0,-0.369182 0.116946,-0.676452 0.116946,-0.309562 0.3302,-0.531988 0.213254,-0.22472 0.511351,-0.348545 0.298097,-0.123825 0.6604,-0.123825 0.362303,0 0.6604,0.123825 0.30039,0.123825 0.513644,0.348545 0.213254,0.222426 0.3302,0.531988 0.116946,0.30727 0.116946,0.676452 z m -0.456318,0 q 0,-0.302684 -0.08255,-0.543454 -0.08255,-0.240771 -0.233892,-0.405871 -0.151341,-0.167393 -0.366889,-0.256822 -0.215547,-0.08943 -0.481541,-0.08943 -0.263701,0 -0.479249,0.08943 -0.215547,0.08943 -0.369182,0.256822 -0.151341,0.1651 -0.233891,0.405871 -0.08255,0.24077 -0.08255,0.543454 0,0.302683 0.08255,0.543454 0.08255,0.238477 0.233891,0.40587 0.153635,0.1651 0.369182,0.25453 0.215548,0.08714 0.479249,0.08714 0.265994,0 0.481541,-0.08714 0.215548,-0.08943 0.366889,-0.25453 0.151342,-0.167393 0.233892,-0.40587 0.08255,-0.240771 0.08255,-0.543454 z"
           style="font-size:4.58611px;stroke-width:0.264583"
           id="path1045" />
        <path
           d="m 67.404736,22.599771 v 2.322865 h -0.243064 q -0.08714,0 -0.110067,-0.08484 l -0.0321,-0.249943 q -0.151341,0.167393 -0.339372,0.27058 -0.18803,0.100895 -0.431094,0.100895 -0.190324,0 -0.337079,-0.06191 -0.144463,-0.0642 -0.243064,-0.178858 -0.0986,-0.114653 -0.149049,-0.27746 -0.04815,-0.162806 -0.04815,-0.360009 v -1.481314 h 0.408164 v 1.481314 q 0,0.263701 0.119239,0.408164 0.121532,0.144462 0.369182,0.144462 0.181151,0 0.337079,-0.08484 0.158221,-0.08714 0.291218,-0.238478 V 22.59978 Z"
           style="font-size:4.58611px;stroke-width:0.264583"
           id="path1047" />
        <path
           d="m 68.764512,24.959325 q -0.275167,0 -0.424215,-0.153635 -0.146756,-0.153634 -0.146756,-0.442559 v -1.421695 h -0.279752 q -0.03669,0 -0.06191,-0.02064 -0.02522,-0.02293 -0.02522,-0.06879 V 22.6892 l 0.380647,-0.04815 0.09401,-0.717726 q 0.0069,-0.0344 0.02981,-0.05503 0.02522,-0.02293 0.06421,-0.02293 h 0.206375 v 0.800276 h 0.671865 v 0.295804 h -0.671865 v 1.394178 q 0,0.146755 0.07109,0.21784 0.07108,0.07109 0.183444,0.07109 0.06421,0 0.110067,-0.01605 0.04815,-0.01834 0.08255,-0.03898 0.0344,-0.02064 0.05733,-0.03669 0.02522,-0.01835 0.04357,-0.01835 0.0321,0 0.05733,0.03898 l 0.119239,0.19491 q -0.105481,0.0986 -0.25453,0.155928 -0.149048,0.05503 -0.307269,0.05503 z"
           style="font-size:4.58611px;stroke-width:0.264583"
           id="path1049" />
      </g>
    </g>
  </g>
  <g
     inkscape:groupmode="layer"
     id="layer5"
     inkscape:label="logo"
     style="opacity:0.72903226">
    <g
       aria-label="htFader"
       id="text925"
       style="font-size:12.7px;line-height:1.25;font-family:Gist;-inkscape-font-specification:Gist;display:inline;fill:#8d00ff;fill-opacity:1;stroke-width:0.264583">
      <path
         d="m 16.700341,4.7341518 h 0.595313 q 0.32246,0 0.32246,0.2976562 v 2.8773437 h 2.951758 v -2.852539 q 0,-0.3224609 0.322461,-0.3224609 h 0.595313 q 0.322461,0.031006 0.322461,0.2480468 v 7.0941404 q 0,0.217041 -0.322461,0.248047 h -0.372071 v -0.04961 h -0.0248 q -0.06201,0.04961 -0.07441,0.04961 h -0.09922 v -0.04961 h -0.02481 l -0.07441,0.04961 q -0.217041,0 -0.248047,-0.322461 V 9.0997767 H 17.618114 V 12.02673 h -0.0248 l -0.347266,-0.07441 q 0,0.03101 -0.42168,0.223242 l -0.04961,0.04961 q -0.09302,-0.04961 -0.198437,-0.04961 h -0.148829 q -0.04961,0 -0.04961,-0.04961 V 4.9821986 q 0,-0.217041 0.322461,-0.2480468 z m -0.02481,1.9099609 v 0.1488281 l -0.0248,0.1488281 q 0.03101,0.1240235 0.07441,0.1240235 0,-0.012402 0.04961,-0.3720704 0,-0.049609 -0.04961,-0.049609 z"
         style="font-style:normal;font-variant:normal;font-weight:normal;font-stretch:normal;font-size:12.7px;font-family:'California by Dirt2';-inkscape-font-specification:'California by Dirt2';fill:#8d00ff;fill-opacity:1;stroke-width:0.264583"
         id="path908" />
      <path
         d="m 24.755663,4.7961635 q 0.254248,0 0.347266,0.1736328 V 4.994601 L 24.954101,4.8705775 v 0.024805 q 0.03721,0 0.07441,0.074414 v 0.024805 l -0.148828,-0.1240235 -0.02481,0.049609 0.297656,0.322461 v 0.024805 l -0.421679,-0.3720703 0.0248,0.049609 v 0.024805 l -0.09922,-0.074414 v 0.024805 q 0.03721,0.0062 0.347265,0.3472656 h -0.0248 L 24.606835,4.9697963 q -0.04961,0.024805 -0.07441,0.024805 v 0.024805 q 0.07441,0 0.248047,0.1984375 h -0.02481 L 24.458007,5.0194057 v 0.024805 q 0.02481,0 0.02481,0.024805 -0.02481,0 -0.02481,0.024805 0.04961,0.0062 0.04961,0.049609 h -0.0248 l -0.09922,-0.049609 v 0.024805 q 0.198438,0.1178223 0.198438,0.1488281 h -0.02481 l -0.198438,-0.099219 v 0.024805 q 0.09922,0.037207 0.09922,0.074414 h -0.0248 l -0.148828,-0.074414 v 0.024805 q 0.148828,0.05581 0.148828,0.099219 h -0.0248 q -0.124024,-0.074414 -0.173633,-0.074414 0,0.043408 0.347266,0.1736328 v 0.024805 h -0.02481 q -0.04341,0 -0.37207,-0.1240234 h -0.02481 v 0.024805 q 0.16123,0.049609 0.173633,0.049609 v 0.024805 h -0.02481 l -0.173633,-0.049609 h -0.02481 v 0.024805 l 0.545704,0.1488281 v 0.024805 h -0.04961 q -0.37207,-0.049609 -0.446484,-0.049609 -0.198438,0.012402 -0.198438,0.074414 0.384473,0.049609 0.570508,0.049609 v 0.024805 h -0.545703 v 0.024805 h 0.471289 v 0.024805 q -0.03721,0 -0.520898,0.049609 l 0.0248,0.049609 q -0.07441,0 -0.173632,0.024805 v 0.024805 l 0.347265,-0.049609 h 0.04961 v 0.024805 q -0.372071,0.074414 -0.396875,0.074414 v 0.024805 h 0.09922 v 0.024805 h -0.04961 v 0.024805 h 0.0248 q 0.04341,-0.024805 0.09922,-0.024805 l 0.02481,0.049609 h -0.04961 v 0.024805 h 0.04961 q 0,0.049609 -0.07441,0.049609 v 0.024805 h 0.02481 q 0.09922,-0.049609 0.148828,-0.049609 l 0.0248,0.049609 q -0.0248,0 -0.0248,0.024805 h 0.0248 q 0.0062,-0.049609 0.04961,-0.049609 h 0.04961 Q 24.15415,6.25964 24.110741,6.25964 l 0.02481,0.049609 q -0.07441,0.1674316 -0.07441,0.1984375 l 0.04961,-0.024805 v 0.024805 q -0.0248,0.049609 -0.0248,0.074414 v 0.024805 h 0.0248 l 0.09922,-0.2232421 h 0.02481 v 0.049609 l 0.07441,-0.049609 0.02481,0.049609 q -0.02481,0.049609 -0.02481,0.074414 0.05581,0 0.07441,-0.1240234 h 0.0248 v 0.049609 q 0.0248,0 0.0248,-0.024805 l 0.04961,0.024805 0.07441,-0.049609 h 0.04961 v 0.1488281 q -0.07441,0 -0.297656,0.1488281 -0.353467,0.1488281 -0.446484,0.1488281 v 0.024805 h 0.04961 v 0.024805 q -0.02481,0 -0.248047,0.049609 v 0.024805 h 0.07441 q 0.130225,-0.024805 0.148828,-0.024805 h 0.02481 v 0.024805 l -0.347266,0.1240234 v 0.024805 h 0.04961 v 0.024805 h -0.04961 v 0.024805 h 0.0248 q 0.37207,-0.1240235 0.42168,-0.1240235 0,0.043408 -0.446485,0.2232422 0,0.074414 -0.07441,0.074414 v 0.049609 h 0.02481 q 0.04341,0 0.223242,-0.074414 l -0.297656,0.2232422 h 0.02481 l 0.04961,-0.024805 0.02481,0.049609 q -0.09922,0.037207 -0.09922,0.074414 0.06201,0.099219 0.09922,0.099219 l -0.02481,0.049609 h 0.02481 q 0,-0.024805 0.0248,-0.024805 0,0.024805 0.0248,0.024805 0.0062,-0.049609 0.04961,-0.049609 l 0.04961,0.024805 q 0.0062,-0.049609 0.04961,-0.049609 v 0.024805 q -0.07441,0.1550293 -0.148828,0.4216796 v 0.024805 h 0.02481 q 0.09922,-0.2976562 0.148828,-0.2976562 l -0.02481,0.1240234 v 0.1984375 h 0.02481 q 0.07441,-0.2666504 0.07441,-0.5208984 h 0.0248 q 0.0248,0.2914551 0.0248,0.4216797 v 0.024805 h 0.04961 q 0.124023,-0.1550293 0.248047,-0.9673828 h 0.0248 v 0.049609 q -0.09922,0.4898926 -0.09922,0.5705078 l 0.07441,0.049609 q 0.04961,0 0.04961,-0.074414 h 0.02481 v 0.049609 q 0.06821,-0.099219 0.124023,-0.099219 l -0.02481,-0.049609 q 0.09922,0 0.09922,-0.1240234 l 0.04961,0.024805 q 0.07442,-0.1178223 0.07442,-0.1488282 h 0.0248 v 0.6945313 q 0,0.049609 -0.07441,0.049609 v 0.024805 h 0.07441 l -0.0248,0.1240235 h -0.04961 q -0.05581,0 -0.322461,0.074414 v 0.024805 h 0.07441 v 0.024805 h -0.04961 v 0.024805 h 0.04961 v 0.024805 h -0.0248 l -0.09922,-0.024805 h -0.04961 v 0.024805 h 0.09922 v 0.024805 h -0.07441 v 0.024805 h 0.0248 l 0.198437,-0.049609 h 0.02481 v 0.024805 q -0.03101,0 -0.272852,0.099219 v 0.024805 l 0.02481,0.049609 q -0.07441,0 -0.07441,0.049609 h 0.02481 q 0.130224,-0.024805 0.148828,-0.024805 h 0.02481 v 0.024805 q -0.05581,0 -0.223243,0.1240235 v 0.024805 h 0.04961 v 0.024805 h -0.04961 l 0.02481,0.049609 h -0.04961 l 0.0248,0.049609 h -0.04961 v 0.024805 q 0.07441,0 0.07441,0.049609 h -0.04961 v 0.024805 q 0.0248,0 0.07441,0.024805 0.04961,-0.024805 0.07441,-0.024805 -0.124024,0.099219 -0.124024,0.1240234 l 0.04961,-0.024805 h 0.0248 l -0.07441,0.099219 q 0.02481,0 0.02481,0.024805 -0.04961,0.0062 -0.04961,0.049609 0.0248,0 0.07441,0.024805 v -0.024805 q 0.04961,0.024805 0.07441,0.024805 0,0.049609 -0.04961,0.049609 l 0.02481,0.049609 -0.04961,0.074414 h 0.0248 L 24.284374,9.4098353 V 9.43464 q 0,0.037207 -0.07441,0.074414 0.04961,0.080615 0.04961,0.1240235 l 0.07441,-0.049609 h 0.0248 v 0.1240234 l 0.02481,0.1240235 h 0.0248 q 0,-0.037207 0.04961,-0.1736328 h 0.02481 v 0.049609 h 0.0248 l 0.02481,-0.1488281 h 0.02481 q 0.04961,0.1612305 0.04961,0.2232422 v 2.1208004 l -0.0248,0.148828 q 0.0248,0.04341 0.0248,0.09922 0,0.297656 -0.322461,0.297656 h -0.545703 q -0.396875,0 -0.396875,-0.347265 V 5.9867885 H 22.151171 Q 21.903124,5.9557826 21.903124,5.7387416 V 5.0442104 q 0,-0.1736329 0.173633,-0.1736329 h 0.04961 q 0.09302,0 0.148828,0.074414 0,0.049609 -0.198438,0.1736328 v 0.1240235 h 0.02481 q 0.08061,-0.049609 0.124023,-0.049609 v 0.024805 l -0.0248,0.049609 h 0.07441 v -0.049609 l -0.02481,-0.049609 q 0.08062,0 0.124023,-0.2728516 l 0.04961,0.024805 h 0.198437 q 0.07441,0 0.248047,-0.099219 0.04961,0.1116211 0.09922,0.1240234 0.124023,-0.074414 0.198437,-0.074414 h 0.471289 q 0,0.074414 0.04961,0.074414 0,-0.099219 0.148828,-0.099219 0.10542,0.1984375 0.173633,0.1984375 0,-0.2232422 0.07441,-0.2232422 0.223242,0.049609 0.248047,0.049609 0.05581,0 0.421679,-0.074414 z m 0.396875,0 h 0.595313 q 0.297656,0 0.297656,0.2480469 v 0.049609 l -0.02481,0.1240235 h -0.0248 Q 25.921484,4.9449916 25.84707,4.9449916 l 0.07441,0.2728516 v 0.024805 h -0.02481 q -0.07441,-0.1984375 -0.07441,-0.2232422 h -0.02481 v 0.024805 q 0.04961,0.099219 0.04961,0.1488281 L 25.698241,4.9697963 v 0.049609 h -0.0248 v -0.049609 h -0.02481 v 0.024805 q 0.09922,0.217041 0.09922,0.2480469 -0.130225,-0.1984375 -0.148828,-0.1984375 l 0.272851,0.5457031 Q 25.754052,5.4720912 25.450195,4.9449916 h -0.02481 v 0.024805 l 0.173633,0.2728516 v 0.024805 Q 25.53081,5.2364467 25.326171,4.8953822 h -0.0248 v 0.049609 q 0.03721,0 0.07441,0.074414 v 0.024805 q -0.0186,0 -0.148829,-0.1488282 0,0.024805 -0.0248,0.024805 -0.04961,-0.080615 -0.04961,-0.1240234 z m -0.09922,0.024805 h 0.07441 q 0,0.049609 0.198437,0.2976562 v 0.024805 q -0.03721,0 -0.272851,-0.2976562 z m 0.644921,0.1984375 h 0.02481 v 0.049609 h -0.02481 z m -0.545703,0.024805 q 0.04961,0.0062 0.04961,0.049609 v 0.024805 q -0.04961,0 -0.04961,-0.049609 z m -1.364257,0.099219 v 0.024805 h 0.07441 l 0.0248,-0.049609 h -0.0248 q -0.04961,0.024805 -0.07441,0.024805 z m 1.95957,0 h 0.02481 v 0.049609 h -0.02481 z m -1.21543,0.024805 h 0.04961 v 0.024805 h -0.04961 z m 0.818555,0 h 0.02481 v 0.049609 h -0.02481 z m 0.42168,0.024805 h 0.0248 v 0.049609 h -0.0248 z m 0.07441,0 h 0.0248 v 0.049609 h -0.0248 z m -1.240235,0.024805 h 0.04961 v 0.024805 h -0.04961 z m 0.198438,0.024805 h 0.04961 v 0.024805 h -0.04961 z m 0.942578,0 h 0.02481 v 0.049609 h -0.02481 z m 0.173633,0 h 0.0248 v 0.049609 h -0.0248 z m -1.463477,0.024805 h 0.04961 v 0.024805 h -0.04961 z m 0.124024,0 h 0.04961 v 0.024805 h -0.04961 z m 1.016992,0 h 0.0248 v 0.049609 h -0.0248 z m -1.091407,0.024805 h 0.04961 v 0.024805 h -0.04961 z m 0.124024,0 h 0.02481 q 0.04961,0.0062 0.04961,0.049609 h -0.02481 q -0.04961,0 -0.04961,-0.049609 z m 1.141016,0 h 0.0248 v 0.049609 h -0.0248 z m -1.21543,0.024805 h 0.04961 v 0.024805 h -0.04961 z m 1.389062,0 h 0.02481 v 0.049609 h -0.02481 z m -1.240234,0.024805 h 0.04961 v 0.024805 h -0.04961 z m -0.09922,0.049609 h 0.04961 v 0.024805 h -0.04961 z m -0.248047,0.024805 h 0.04961 v 0.024805 h -0.04961 z m 0.297657,0 h 0.04961 v 0.024805 h -0.04961 z m -0.223243,0.024805 h 0.04961 V 5.46589 h -0.04961 z m 0.148829,0 h 0.07441 V 5.46589 h -0.07441 z m -0.07442,0.024805 h 0.04961 v 0.024805 h -0.04961 z m 0.148829,0 h 0.04961 v 0.024805 h -0.04961 z m 0.520898,0 h 0.02481 q 0.04341,0 0.07441,0.1240235 h -0.0248 q -0.04961,0 -0.04961,-0.049609 0.0248,0 0.0248,-0.024805 -0.04961,0 -0.04961,-0.049609 z m -0.595312,0.024805 h 0.04961 v 0.024805 h -0.04961 z m 0.248046,0.049609 h 0.04961 v 0.024805 h -0.04961 z m 0.148829,0.074414 h 0.0248 v 0.049609 h -0.0248 z M 24.20996,5.788351 h 0.07441 v 0.024805 h -0.07441 z m 0.297656,0.024805 h 0.04961 v 0.024805 h -0.04961 z m 0.644922,0.049609 q 0.04961,0.0062 0.04961,0.049609 l -0.04961,0.024805 q -0.04961,0 -0.04961,-0.049609 z m -1.141015,0.024805 h 0.07441 v 0.024805 h -0.07441 z m -0.09922,0.024805 h 0.07441 v 0.024805 h -0.07441 z m 1.314648,0 0.02481,0.049609 v 0.024805 h -0.07441 v -0.024805 q 0.0062,-0.049609 0.04961,-0.049609 z m -1.240234,0.024805 h 0.04961 v 0.024805 h -0.04961 z m 0,0.074414 h 0.04961 v 0.024805 h -0.04961 z m 0.09922,0.024805 h 0.04961 v 0.024805 h -0.04961 z m 0.04961,0.322461 h 0.0248 v 0.049609 h -0.0248 z m -0.02481,0.074414 h 0.02481 v 0.049609 h -0.02481 z m -0.173632,0.396875 h 0.04961 v 0.024805 h -0.04961 z m -0.02481,0.074414 h 0.04961 v 0.024805 h -0.04961 z m 0.09922,0.099219 h 0.04961 v 0.024805 h -0.04961 z m 0.198437,0 h 0.02481 v 0.1488282 h -0.02481 z m -0.471289,0.2728516 h 0.04961 v 0.024805 h -0.04961 z m 0.471289,0 h 0.02481 v 0.049609 h -0.02481 z m 0.372071,0 h 0.0248 v 0.049609 h -0.0248 z m -0.644922,0.049609 h 0.0248 v 0.049609 h -0.0248 z m 0.620117,0 h 0.02481 v 0.049609 h -0.02481 z m -0.02481,0.049609 h 0.02481 v 0.049609 h -0.02481 z m -0.04961,0.099219 h 0.0248 v 0.049609 h -0.0248 z m -0.942578,0.024805 h 0.04961 v 0.024805 h -0.04961 z m 0.74414,0.868164 h 0.04961 v 0.024805 h -0.04961 z m -0.124023,0.2480469 h 0.04961 V 8.64089 h -0.04961 z m 0.148828,0.024805 h 0.04961 v 0.024805 h -0.04961 z m -0.04961,0.024805 h 0.04961 v 0.024805 h -0.04961 z m 0.322461,0.2976562 v 0.049609 h -0.04961 q 0.0062,-0.049609 0.04961,-0.049609 z m -0.545704,0.024805 h 0.04961 v 0.024805 h -0.04961 z m 0.02481,0.074414 h 0.04961 v 0.024805 h -0.04961 z m 0.09922,0 h 0.04961 v 0.024805 h -0.04961 z m 0,0.074414 h 0.02481 q 0,0.049609 -0.04961,0.049609 h -0.02481 q 0.0062,-0.049609 0.04961,-0.049609 z m -0.04961,1.5875003 v 0.09922 l 0.124024,0.0248 q 0.04341,-0.0248 0.09922,-0.0248 v -0.0248 q -0.02481,-0.07441 -0.148828,-0.07441 z m 0.04961,0.347265 q 0.08062,0.04961 0.148828,0.04961 h 0.02481 v -0.148828 h -0.02481 q -0.124023,0 -0.148828,0.09922 z m 0.07441,0.07441 v 0.09922 q 0.0062,0.04961 0.04961,0.04961 h 0.04961 q 0.04961,0 0.04961,-0.04961 l -0.09922,-0.09922 z m 0.07441,0.198438 -0.02481,0.04961 v 0.02481 l 0.124024,0.08682 h 0.0248 v -0.136425 z m -0.669727,0.830957 v 0.04961 h 0.04961 q 0.04961,0 0.04961,-0.04961 0,-0.04961 -0.04961,-0.04961 -0.04961,0.0062 -0.04961,0.04961 z"
         style="font-style:normal;font-variant:normal;font-weight:normal;font-stretch:normal;font-size:12.7px;font-family:'California by Dirt2';-inkscape-font-specification:'California by Dirt2';fill:#8d00ff;fill-opacity:1;stroke-width:0.264583"
         id="path910" />
      <path
         d="m 27.081103,4.8581752 q 0.09922,0 0.09922,0.024805 l 0.173633,-0.024805 h 1.016992 q 0.02481,0 0.02481,0.024805 l 0.04961,-0.024805 h 0.992187 l 0.07441,0.049609 h 0.04961 v -0.049609 h 0.198437 q 0.02481,0 0.02481,0.024805 l 0.04961,-0.024805 q 0.02481,0 0.02481,0.024805 l 0.124024,-0.024805 q 0.297656,0.012402 0.297656,0.2976562 v 0.5953125 q 0,0.2976563 -0.248047,0.2976563 h -0.09922 V 5.825558 q 0,-0.1488281 -0.148828,-0.2232422 h -0.124023 q -0.07441,0.1860352 -0.124024,0.4464844 h -0.173633 q -0.08682,-0.099219 -0.198437,-0.099219 -0.02481,0.043408 -0.02481,0.099219 h -1.761133 v 1.984375 h 2.579688 q 0.322461,0 0.322461,0.3720703 v 0.471289 q 0,0.3720703 -0.322461,0.3720703 h -1.091406 v -0.024805 h 0.04961 v -0.099219 h -0.07441 L 28.718212,9.2486048 H 28.1229 l 0.0248,-0.049609 q -0.0248,0 -0.0248,-0.024805 -0.02481,0 -0.02481,0.024805 l -0.124023,-0.024805 h -0.09922 l -0.09922,0.074414 h -0.09922 q -0.248047,0 -0.595313,0.024805 -0.04341,-0.024805 -0.09922,-0.024805 0.04961,0.1364258 0.148828,0.1736328 h 0.248047 v 2.7285154 q 0,0.297656 -0.322461,0.297656 H 26.5354 q -0.396875,0 -0.396875,-0.347265 V 9.6206751 q 0.42168,-0.1240234 0.496094,-0.1240234 l 0.173633,0.024805 q 0.09922,-0.024805 0.09922,-0.099219 0,-0.086816 -0.173633,-0.1240234 l -0.347265,0.074414 h -0.04961 l -0.124024,-0.024805 q 0,0.074414 -0.04961,0.074414 h -0.0248 V 8.7277064 q 0.124023,0 0.124023,-0.049609 H 26.138525 V 5.1806361 q 0,-0.1736328 0.347266,-0.2480468 h 0.223242 q 0.10542,0 0.272851,0.024805 0.04961,-0.024805 0.07441,-0.024805 0,0.074414 0.04961,0.074414 0.04961,0 0.04961,-0.049609 0,-0.049609 -0.07441,-0.049609 z m -0.471289,0.2232422 h 0.02481 q 0.04961,0 0.04961,-0.049609 v -0.024805 q -0.03721,0 -0.07441,0.074414 z m 3.075781,0.3472656 q 0.0062,0.049609 0.04961,0.049609 0,-0.068213 0.07441,-0.1736328 l -0.04961,-0.024805 q -0.07441,0.024805 -0.07441,0.1488281 z m -3.472656,-0.024805 v 0.2480469 h 0.09922 q 0.04961,0 0.04961,-0.049609 v -0.024805 q 0,-0.1736328 -0.148828,-0.1736328 z m 0.148828,3.249414 v 0.024805 h 0.02481 q 0.04961,0 0.04961,-0.049609 V 8.603683 h -0.0248 q -0.04961,0.0062 -0.04961,0.049609 z m 0.248047,0.4712891 0.04961,0.024805 0.02481,-0.049609 V 9.074972 h -0.02481 q -0.04961,0.0062 -0.04961,0.049609 z m -0.09922,0.79375 h 0.07441 q 0.04961,0 0.04961,-0.049609 h -0.07441 q -0.04961,0.0062 -0.04961,0.049609 z m -0.322461,-0.024805 -0.0248,0.049609 v 0.049609 q 0.186035,0.04961 0.223242,0.04961 l 0.04961,-0.074414 z m 0.669727,0 v 0.074414 h 0.124023 v -0.074414 z m 0.124023,0.7441403 h 0.02481 q 0.124023,0 0.148828,-0.09922 h -0.07441 q -0.03721,0 -0.09922,0.09922 z"
         style="font-style:normal;font-variant:normal;font-weight:normal;font-stretch:normal;font-size:12.7px;font-family:'California by Dirt2';-inkscape-font-specification:'California by Dirt2';fill:#8d00ff;fill-opacity:1;stroke-width:0.264583"
         id="path912" />
      <path
         d="m 33.52412,4.8581752 h 0.694531 q 0.37207,0 0.37207,0.1984375 0.37207,0.8557617 0.37207,0.9425781 -0.10542,0.099219 -0.198437,0.099219 -0.130225,0 -0.42168,-0.024805 -0.08062,0.1674316 -0.37207,0.3472656 0,0.024805 -0.173633,0.1488281 h 0.02481 l 0.124023,-0.049609 v 0.049609 q -0.21084,0.049609 -0.248047,0.049609 -0.04961,-0.024805 -0.07441,-0.024805 -0.421679,0.1364258 -0.421679,0.1736328 0.05581,-0.024805 0.496093,-0.099219 h 0.02481 v 0.024805 q -0.0186,0 -0.892969,0.4712891 l 0.02481,0.049609 q 0.03101,-0.024805 0.148828,-0.024805 v 0.024805 q 0.31626,-0.2046387 0.570508,-0.2232422 h 0.02481 v 0.024805 l -0.768946,0.3224609 v 0.049609 q 0.04961,-0.024805 0.07441,-0.024805 h 0.02481 v 0.024805 l -0.124023,0.024805 v 0.024805 h 0.0248 q 0.05581,0 0.297657,-0.074414 -0.303858,0.3410644 -0.620118,0.5953125 l 0.04961,0.024805 q 0.130224,-0.1054199 0.37207,-0.1736328 l -0.272852,0.1984375 h 0.02481 Q 33.046629,7.7851283 33.10244,7.7851283 32.823387,8.0455775 32.383104,8.281222 v 0.024805 h 0.0248 q 0.04961,-0.024805 0.07441,-0.024805 l -0.07441,0.099219 h 0.0248 q 0.539502,-0.322461 0.595313,-0.322461 -0.58291,0.4216797 -0.595313,0.5457032 0.03721,0 0.42168,-0.2728516 h 0.02481 l -0.02481,0.049609 q 0.08062,-0.049609 0.124023,-0.049609 -0.545703,0.4464844 -0.545703,0.4712891 h 0.02481 L 32.655955,8.678097 h 0.02481 l -0.173633,0.1984375 h 0.02481 l 0.124023,-0.074414 h 0.02481 l -0.148828,0.1736328 h 0.02481 q 0,-0.037207 0.07441,-0.074414 h 0.0248 Q 32.531932,9.0501673 32.531932,9.074972 l 0.04961,0.024805 Q 32.73037,9.000558 32.73037,8.9261439 h 0.0248 v 0.074414 q -0.03101,0.031006 -0.124023,0.2232421 l 0.0248,0.049609 q -0.173632,0.3844727 -0.173632,0.4464844 0.06201,0 0.124023,-0.1984375 h 0.02481 v 0.024805 q -0.07441,0.2790527 -0.07441,0.3224609 0.04961,0 0.04961,-0.074414 l 0.04961,0.024805 q 0.04961,-0.1736328 0.09922,-0.1736328 0.0124,0.099219 0.07441,0.099219 0.0062,-0.049609 0.04961,-0.049609 h 0.07441 q 0,-0.099219 0.04961,-0.2976563 -0.02481,-0.049609 -0.02481,-0.074414 l 0.02481,-0.1488281 h 0.0248 l 0.0248,0.1240234 h 0.02481 v -0.074414 h 0.02481 q 0,0.074414 0.04961,0.074414 V 9.1493861 h 0.02481 v 0.074414 h 0.02481 v -0.099219 h 0.0248 q 0.0186,0.1240234 0.07441,0.1240234 v -0.024805 q -0.0248,-0.049609 -0.0248,-0.074414 v -0.024805 h 0.0248 q 0.04961,0.1550293 0.04961,0.1984375 h 0.0248 v -0.074414 q 0,-0.086816 -0.09922,-0.471289 v -0.024805 h 0.0248 l 0.02481,0.1240234 h 0.02481 l 0.04961,-0.024805 0.02481,0.1240235 h 0.0248 v -0.024805 q 0,-0.018604 -0.04961,-0.1736328 v -0.024805 h 0.02481 l 0.0248,0.099219 h 0.02481 v -0.049609 q -0.02481,-0.049609 -0.02481,-0.074414 l 0.04961,0.024805 v -0.024805 q -0.02481,-0.043408 -0.02481,-0.099219 l 0.04961,0.024805 v -0.074414 l 0.04961,0.024805 -0.02481,-0.049609 v -0.074414 h 0.02481 q 0.04961,0.2232422 0.09922,0.2232422 l -0.02481,-0.099219 v -0.049609 h 0.02481 v 0.074414 h 0.0248 v -0.049609 l -0.0248,-0.1240235 v -0.024805 h 0.0248 q 0.02481,0.1302247 0.02481,0.1488282 h 0.02481 V 8.4548548 h 0.0248 q 0,0.080615 0.148829,0.4960938 h 0.0248 V 8.9261439 Q 33.747362,8.2378138 33.747362,8.1571986 v -0.049609 h 0.0248 q 0,0.037207 0.198438,0.6697266 h 0.02481 v -0.024805 l -0.07441,-0.2976563 v -0.024805 h 0.0248 l 0.02481,0.1240235 h 0.02481 v -0.074414 h 0.0248 v 0.074414 h 0.02481 V 8.5044642 L 33.89619,7.9587611 v -0.024805 h 0.02481 l 0.272851,0.9425781 h 0.02481 V 8.7525111 q 0,-0.2046387 -0.124024,-0.4216797 0.02481,-0.043408 0.02481,-0.099219 -0.04961,-0.080615 -0.04961,-0.1488282 v -0.074414 h 0.0248 q 0.02481,0.1302246 0.02481,0.1488281 h 0.0248 V 8.1075892 L 34.094627,7.809933 v -0.024805 h 0.02481 v 0.074414 h 0.0248 v -0.074414 l -0.0248,-0.1736328 h -0.02481 v 0.099219 h -0.0248 q 0,-0.086816 -0.02481,-0.2232422 v -0.024805 h 0.02481 v 0.049609 h 0.0248 V 7.413058 h 0.02481 q 0,0.1302246 0.173633,0.9921875 h 0.02481 V 8.3060267 Q 34.26826,8.0455775 34.26826,8.0331752 v -0.049609 h 0.02481 l 0.07441,0.3720703 h 0.0248 v -0.049609 q 0,-0.024805 -0.0248,-0.1984375 v -0.049609 h 0.0248 v 0.099219 h 0.0248 V 8.0331752 q 0,-0.049609 -0.04961,-0.2976563 v -0.074414 h 0.0248 q 0,0.099219 0.148828,0.6697266 h 0.0248 v -0.024805 l -0.04961,-0.2976562 v -0.049609 h 0.02481 l 0.0248,0.1736328 h 0.02481 V 7.9835658 h 0.02481 v 0.1240234 h 0.0248 V 7.9339564 h 0.02481 q 0,0.055811 0.07441,0.2976563 h 0.02481 v -0.074414 q 0,-0.1860352 -0.09922,-0.7689453 v -0.074414 h 0.02481 q 0,0.2232422 0.148828,0.6945313 h 0.02481 v -0.074414 q 0,-0.179834 -0.04961,-0.5208984 v -0.074414 h 0.02481 q 0,0.099219 0.07441,0.4216797 h 0.02481 V 7.6363002 h 0.0248 q 0,0.018604 0.02481,0.1984375 h 0.0248 V 7.6363002 h 0.0248 l 0.02481,0.2232421 h 0.02481 v -0.099219 q 0,-0.062012 -0.04961,-0.2976563 l 0.04961,0.024805 q 0,-0.024805 0.0248,-0.024805 0,0.086817 0.02481,0.2232422 h 0.02481 v -0.099219 l -0.02481,-0.2480469 v -0.074414 h 0.02481 q 0,0.1240234 0.04961,0.2976562 h 0.02481 V 7.4378627 h 0.0248 v 0.099219 h 0.0248 v -0.099219 h 0.02481 v 0.099219 h 0.02481 V 7.487472 l -0.04961,-0.4960937 v -0.024805 h 0.02481 q 0,0.062012 0.04961,0.2728516 h 0.02481 V 7.1650111 Q 35.359666,7.0347865 35.359666,7.016183 v -0.024805 h 0.02481 q 0,0.062012 1.513086,3.7951167 0.520898,1.358057 0.545703,1.389063 0,0.192236 -0.37207,0.223242 -0.05581,0 -0.09922,0.02481 l -0.04961,-0.02481 q -0.08062,0.04961 -0.148828,0.04961 l -0.07441,-0.04961 -0.04961,0.02481 q 0,-0.02481 -0.02481,-0.02481 0,0.04961 -0.04961,0.04961 h -0.124023 q -0.26045,0 -0.347266,-0.272851 -0.322461,-0.89917 -0.496094,-1.240234 0.02481,-0.03101 0.02481,-0.124024 -0.124024,0 -0.124024,-0.198437 -0.148828,-0.291455 -0.148828,-0.396875 h -2.877343 q -0.04961,0 -0.79375,1.984375 l -0.04961,0.0248 q -0.155029,0 -0.570508,-0.09922 0,0.03101 -0.421679,0.223242 l -0.04961,0.04961 q -0.223242,-0.04341 -0.223242,-0.223242 2.827735,-7.1189453 2.926953,-7.2677734 0.161231,-0.049609 0.223243,-0.049609 z m 0.79375,1.3146484 h 0.09922 q -0.0248,0.074414 -0.148828,0.074414 V 6.222433 q 0.0062,-0.049609 0.04961,-0.049609 z m 0.173632,0 h 0.173633 v 0.024805 l -0.124023,0.024805 h -0.09922 q 0.0062,-0.049609 0.04961,-0.049609 z m 0.223243,0 h 0.04961 v 0.024805 h -0.04961 z m -0.570508,0.1984375 q 0.04341,0.024805 0.09922,0.024805 v 0.024805 h -0.09922 z m 0.09922,0 h 0.07442 v 0.024805 h -0.07442 z m 0.297657,0 h 0.04961 v 0.024805 h -0.04961 z m -0.09922,0.074414 h 0.02481 q 0.04961,0.0062 0.04961,0.049609 h -0.02481 q -0.04961,0 -0.04961,-0.049609 z m -0.04961,0.024805 h 0.04961 v 0.049609 h -0.04961 z m -0.248047,0.024805 h 0.04961 v 0.024805 h -0.04961 z m 0.0248,0.1488281 h 0.04961 v 0.049609 h -0.04961 z m -0.248046,0.1488281 v 0.024805 l 0.04961,-0.024805 h 0.148828 q 0,0.068213 -0.42168,0.099219 h -0.0248 v -0.024805 q 0.235644,-0.074414 0.248047,-0.074414 z m 0.496093,0 h 0.04961 v 0.049609 q -0.04961,0 -0.04961,-0.049609 z m -0.79375,0.099219 h 0.04961 v 0.024805 h -0.04961 z m 0.669727,0 h 0.02481 v 0.049609 h -0.02481 z m -0.595313,0.049609 h 0.04961 v 0.024805 h -0.04961 z m 0.520899,0 h 0.04961 v 0.074414 q -0.04961,0 -0.04961,-0.049609 z m -0.620117,0.024805 h 0.09922 v 0.024805 h -0.09922 z m 0.223242,0 h 0.124023 v 0.024805 h -0.124023 z m 0.37207,0.024805 v 0.099219 q -0.04961,0 -0.04961,-0.049609 0.0062,-0.049609 0.04961,-0.049609 z m -0.644922,0.1240234 h 0.09922 v 0.024805 h -0.04961 v 0.024805 h 0.07441 v 0.024805 q -0.07441,0 -0.173633,0.024805 0.04961,-0.062012 0.04961,-0.099219 z m -0.545703,0.024805 h 0.04961 v 0.024805 h -0.04961 z m 0.396875,0 h 0.02481 q 0,0.037207 -0.148828,0.1240235 h -0.0248 q 0,-0.037207 0.148828,-0.1240235 z m 1.711523,0 h 0.02481 v 0.1240235 h -0.02481 z m -0.620117,0.024805 h 0.02481 v 0.074414 h -0.02481 z m 0.694532,0.049609 h 0.0248 v 0.074414 h -0.0248 z m -2.00918,0.024805 q 0,0.05581 -0.223242,0.1240234 h -0.02481 v -0.024805 q 0.229443,-0.099219 0.248047,-0.099219 z m 0.396875,0 h 0.04961 v 0.024805 h -0.04961 z m 0.719336,0 h 0.02481 q 0,0.086816 0.0248,0.2232421 v 0.074414 h -0.0248 q 0,-0.062012 -0.02481,-0.1984375 z m 0.496094,0 h 0.0248 v 0.099219 h -0.0248 z m 0.148828,0 h 0.0248 v 0.099219 h -0.0248 z m -0.942578,0.024805 h 0.0248 v 0.099219 h -0.0248 z m 0.37207,0 h 0.0248 v 0.074414 h -0.0248 z m 0.148828,0.024805 h 0.02481 v 0.099219 h -0.02481 z m 0.694531,0.024805 h 0.02481 v 0.1240235 h -0.02481 z m -1.190625,0.049609 h 0.02481 v 0.074414 h -0.02481 z m 0.372071,0 h 0.0248 l 0.07441,0.4216797 v 0.049609 h -0.0248 L 34.392284,7.413058 Z m 0.570507,0 h 0.02481 v 0.099219 h -0.02481 z m -0.07441,0.024805 h 0.02481 v 0.099219 h -0.02481 z m -1.661914,0.024805 h 0.07441 v 0.024805 h -0.07441 z m 1.314649,0 h 0.0248 v 0.099219 h -0.0248 z m -0.79375,0.024805 h 0.0248 v 0.049609 h -0.0248 z m 0.496093,0.024805 h 0.02481 v 0.074414 h -0.02481 z m -1.066601,0.024805 h 0.04961 v 0.024805 h -0.04961 z m 1.810742,0 h 0.0248 v 0.1240235 h -0.0248 z m -1.934766,0.024805 h 0.07442 v 0.024805 h -0.07442 z m 0.644922,0 h 0.02481 v 0.049609 h -0.02481 z m 0.471289,0 h 0.02481 v 0.049609 h -0.02481 z m 0.744141,0 h 0.02481 v 0.099219 h -0.02481 z m -1.637109,0.024805 q 0,0.055811 -0.297657,0.1240234 0,-0.074414 0.297657,-0.1240234 z m 0.694531,0 h 0.02481 v 0.074414 h -0.02481 z m 0.37207,0 h 0.02481 v 0.1240234 h -0.02481 z m 0.223242,0.024805 h 0.02481 v 0.074414 h -0.02481 z m -0.297656,0.024805 h 0.02481 v 0.099219 h -0.02481 z m -0.272851,0.049609 h 0.0248 v 0.099219 h -0.0248 z m 0.595312,0.049609 h 0.02481 v 0.099219 h -0.02481 z m -0.297656,0.024805 h 0.02481 v 0.099219 h -0.02481 z m -0.868164,0.049609 h 0.04961 v 0.024805 h -0.04961 z m -0.496094,0.024805 h 0.04961 v 0.024805 h -0.04961 z m 1.612305,0.024805 h 0.0248 v 0.074414 h -0.0248 z m 0.07441,0 h 0.0248 v 0.1240234 h -0.0248 z m -0.297656,0.024805 h 0.0248 v 0.099219 h -0.0248 z m 0.173632,0.024805 h 0.02481 v 0.099219 h -0.02481 z m -1.116211,0.024805 h 0.07441 v 0.024805 h -0.07441 z m 0.868164,0 h 0.02481 v 0.099219 h -0.02481 z m 0.322461,0 h 0.02481 v 0.099219 h -0.02481 z m -0.421679,0.049609 v 0.024805 q 0.04961,0.3410644 0.124023,0.6201172 h 0.02481 V 8.5540736 L 34.169041,7.9339564 Z m -0.744141,0.024805 h 0.02481 v 0.049609 h -0.02481 z m 0.942578,0 h 0.02481 v 0.099219 h -0.02481 z m -1.810742,0.1240234 q 0.09922,-0.037207 0.09922,-0.074414 -0.09922,0.037207 -0.09922,0.074414 z m 0.545703,-0.074414 h 0.04961 v 0.024805 h -0.04961 z m -0.04961,0.024805 h 0.04961 v 0.024805 h -0.04961 z m 0.768945,0 h 0.02481 l 0.07441,0.2728515 0.04961,-0.024805 q 0.04961,0.1302246 0.04961,0.1488281 v 0.049609 h -0.02481 l -0.02481,-0.1240234 h -0.0248 v 0.074414 h -0.02481 l -0.09922,-0.3720703 z m -0.07441,0.024805 h 0.02481 v 0.049609 h -0.02481 z m -0.967383,0.049609 h 0.04961 v 0.024805 h -0.04961 z m 0.545703,0 q 0.04961,0.0062 0.04961,0.049609 h -0.04961 z m -0.620117,0.049609 h 0.04961 v 0.024805 h -0.04961 z m 0.595313,0.024805 h 0.0248 v 0.049609 h -0.0248 z m -0.719336,0.024805 h 0.0248 q 0,0.037207 -0.07441,0.074414 h -0.0248 q 0,-0.037207 0.07441,-0.074414 z m 0.669726,0.024805 h 0.02481 v 0.049609 h -0.02481 z m 0.446485,0.024805 h 0.0248 v 0.049609 h -0.0248 z m -0.768946,0.024805 h 0.04961 v 0.024805 h -0.04961 z m 0.719336,0 h 0.02481 v 0.074414 h -0.02481 z m 0.07441,0.024805 h 0.02481 v 0.074414 h -0.02481 z m -0.496093,0.024805 h 0.0248 v 0.074414 h -0.0248 z m 0.446484,0.024805 h 0.02481 v 0.074414 h -0.02481 z m 0.07441,0.024805 h 0.02481 v 0.074414 h -0.02481 z m -0.124023,0.024805 h 0.0248 v 0.074414 h -0.0248 z m -0.669727,0.074414 h 0.02481 q 0,0.049609 -0.04961,0.049609 h -0.0248 q 0.0062,-0.049609 0.04961,-0.049609 z m 0.694531,0 h 0.02481 v 0.074414 h -0.02481 z m -0.496093,0.024805 h 0.0248 v 0.049609 h -0.0248 z m 0.07441,0.024805 h 0.0248 v 0.049609 h -0.0248 z m 0.297656,0 h 0.02481 v 0.049609 h -0.02481 z m -0.669727,0.024805 h 0.02481 q 0,0.049609 -0.04961,0.049609 h -0.02481 q 0.0062,-0.049609 0.04961,-0.049609 z m 0.620117,0 h 0.02481 v 0.049609 h -0.02481 z m 0.84336,0.049609 v 0.049609 h 0.02481 V 8.603683 Z m -1.066602,0 h 0.02481 v 0.074414 h -0.02481 z m 0.322461,0.024805 q 0.02481,0.043408 0.02481,0.099219 h 0.02481 v -0.074414 z m -0.818554,0 h 0.0248 q 0,0.049609 -0.04961,0.049609 h -0.02481 q 0.0062,-0.049609 0.04961,-0.049609 z m 0.32246,0 h 0.02481 v 0.074414 h -0.02481 z m 0.372071,0.024805 h 0.0248 v 0.049609 h -0.0248 z m 0.272851,0.024805 q 0.02481,0.049609 0.02481,0.074414 h 0.02481 v -0.049609 z m -0.446484,0 h 0.0248 v 0.074414 h -0.0248 z m -0.396875,0.024805 h 0.02481 q 0,0.037207 -0.09922,0.099219 h -0.02481 q 0,-0.037207 0.09922,-0.099219 z m 0.520898,0 h 0.02481 v 0.049609 h -0.02481 z m -0.347265,0.024805 h 0.0248 q 0.02481,0.1302246 0.02481,0.1488281 v 0.024805 h -0.02481 q 0,-0.018604 -0.0248,-0.1488281 z m 0.09922,0.1488281 h 0.0248 v 0.049609 h -0.0248 z m -0.04961,0.024805 h 0.02481 v 0.074414 h -0.02481 z m 0.07441,0.049609 h 0.02481 v 0.049609 h -0.02481 z m -0.04961,0.049609 h 0.02481 v 0.049609 h -0.02481 z m -0.148828,0.024805 h 0.0248 v 0.074414 h -0.0248 z m 0.223242,0 h 0.02481 v 0.074414 h -0.02481 z m -0.04961,0.049609 h 0.0248 v 0.049609 h -0.0248 z m 0.124023,0 h 0.0248 v 0.049609 h -0.0248 z m -0.272852,0.024805 h 0.02481 v 0.074414 h -0.02481 z m 3.348633,2.0587893 0.04961,0.0248 0.0248,-0.04961 v -0.02481 h -0.0248 q -0.04961,0.0062 -0.04961,0.04961 z m 0.446485,0.595312 v 0.04961 h 0.0248 q 0.04961,-0.02481 0.07441,-0.02481 v -0.0248 q 0,-0.04961 -0.04961,-0.04961 -0.04961,0.0062 -0.04961,0.04961 z m 0.37207,0.198438 v 0.07441 h 0.04961 v -0.07441 z m -0.520899,0.223242 h 0.09922 q 0.04961,0 0.04961,-0.04961 v -0.04961 h -0.07441 q -0.03721,0 -0.07441,0.09922 z m -5.13457,0 h 0.09922 q 0.04961,0 0.04961,-0.04961 h -0.09922 q -0.04961,0.0062 -0.04961,0.04961 z m 5.109766,0.09922 h 0.07441 q 0.04961,0 0.04961,-0.04961 h -0.07441 q -0.04961,0.0062 -0.04961,0.04961 z m 0.396875,0 v 0.0248 q 0.0062,0.04961 0.04961,0.04961 h 0.04961 v -0.0248 q 0,-0.04961 -0.04961,-0.04961 z"
         style="font-style:normal;font-variant:normal;font-weight:normal;font-stretch:normal;font-size:12.7px;font-family:'California by Dirt2';-inkscape-font-specification:'California by Dirt2';fill:#8d00ff;fill-opacity:1;stroke-width:0.264583"
         id="path914" />
      <path
         d="m 37.933153,4.8581752 h 0.07441 l 0.02481,0.1240234 v 0.1240235 q 0,0.049609 -0.04961,0.049609 z m 0.471289,0 h 0.0248 v 0.049609 h -0.0248 z m 0.942578,0 h 0.02481 q 0.09922,0.037207 0.09922,0.074414 h -0.0248 q -0.09922,-0.037207 -0.09922,-0.074414 z m -1.513086,0.024805 q 0.07441,0.2046387 0.07441,0.3472656 v 0.024805 h -0.0248 q 0,-0.055811 -0.124023,-0.2728516 0.03721,-0.099219 0.07441,-0.099219 z m 2.703711,0 h 0.04961 l 0.02481,0.1240234 v 0.049609 h -0.02481 q 0,-0.074414 -0.04961,-0.1736328 z m 0.148828,0.024805 h 0.04961 V 5.031808 h -0.0248 q 0,-0.080615 -0.02481,-0.1240234 z m -0.248047,0.074414 h 0.02481 q 0.06821,0 0.173633,0.2976563 h 0.0248 v -0.024805 q -0.0248,-0.049609 -0.0248,-0.074414 0.04961,0 0.04961,0.074414 h 0.02481 v -0.049609 h 0.0248 q 0,0.037207 0.04961,0.099219 l -0.02481,0.099219 v 0.074414 h 0.02481 l 0.04961,-0.2976563 h 0.02481 v 0.099219 h 0.02481 v -0.049609 l -0.02481,-0.1240234 v -0.024805 h 0.02481 q 0.0186,0.1736328 0.07441,0.1736328 -0.04961,-0.1860352 -0.04961,-0.2232422 0.07441,0 0.124024,0.2976563 h 0.0248 V 5.2054408 q 0.04961,0.0062 0.04961,0.049609 v 0.1240234 h 0.04961 V 5.2054408 h 0.02481 v 0.049609 h 0.0248 v -0.049609 q -0.04961,0 -0.04961,-0.049609 v -0.024805 h 0.04961 q 0.04961,0.2418457 0.04961,0.2728515 h 0.0248 q 0,-0.1426269 0.0248,-0.1736328 -0.0248,-0.043408 -0.0248,-0.099219 v -0.024805 l 0.07441,0.049609 v -0.049609 l -0.04961,-0.099219 h 0.02481 q 0.06201,0 0.09922,0.4712891 h 0.0248 l 0.04961,-0.3472656 q 0.04961,0 0.04961,0.074414 h 0.02481 v -0.024805 l -0.04961,-0.099219 h 0.02481 l 0.09922,0.099219 v -0.074414 q 0.09922,0 0.09922,0.3472656 h 0.0248 V 5.2054408 h 0.04961 v 0.2976563 h 0.04961 V 5.2798549 q 0.0062,-0.049609 0.04961,-0.049609 0.124024,0.049609 0.124024,0.074414 0,0.3472656 0.07441,0.3472656 V 5.5279018 h 0.0248 q 0,0.074414 0.0248,0.1736328 h 0.02481 V 5.5030971 l -0.02481,-0.1240235 h 0.02481 q 0.04961,0 0.04961,0.1736328 h 0.02481 v -0.074414 h 0.02481 q 0,0.018604 0.0248,0.1488281 h 0.02481 v -0.049609 l -0.04961,-0.1240234 h 0.0248 l 0.124024,0.1488281 -0.02481,-0.049609 v -0.024805 q 0.756543,0.5891113 0.992188,1.1410156 0.217041,0.254248 0.446484,1.0914062 0.07441,0.434082 0.07441,0.6697265 v 0.4464844 q 0,1.4758785 -1.240234,2.7037105 -0.979785,0.868164 -2.728516,0.868164 h -1.661914 q 0,-0.130224 0.02481,-0.967382 -0.04961,-1.327051 -0.07441,-1.4882816 0.0248,-0.2790527 0.0248,-0.5208984 0,-0.5953125 -0.04961,-1.6867187 0.02481,-0.3906738 0.02481,-0.5705078 h 0.0248 v 0.074414 h 0.02481 V 7.2394252 Q 38.255614,7.05339 38.255614,7.0409877 h 0.04961 l 0.02481,0.099219 0.04961,-0.024805 q 0,0.024805 0.02481,0.024805 V 7.016183 h 0.0248 v 0.049609 h 0.0248 l 0.02481,-0.099219 q 0.10542,0.074414 0.198437,0.074414 0.09922,-0.037207 0.09922,-0.074414 v -0.074414 q 0,-0.049609 -0.04961,-0.049609 h -0.223242 q 0,0.074414 -0.09922,0.1240234 l -0.02481,-0.049609 v -0.024805 l 0.04961,0.024805 v -0.049609 l -0.0248,-0.049609 q 0.04961,0 0.04961,-0.049609 -0.124023,-0.217041 -0.124023,-0.2728515 v -0.024805 h 0.0248 v 0.049609 q 0.03721,0 0.07441,-0.1240234 h 0.04961 l -0.02481,-0.049609 0.02481,-0.1240234 h 0.02481 v 0.049609 h 0.0248 V 6.222433 h 0.02481 v 0.024805 q -0.04961,0.1550293 -0.04961,0.1736328 0.04341,0 0.09922,-0.1736328 h 0.02481 v 0.074414 q 0.05581,0 0.223242,-0.3224609 h 0.02481 v 0.049609 q 0,0.1054199 -0.07441,0.2480469 0.02481,0.049609 0.02481,0.074414 l -0.02481,0.099219 v 0.024805 h 0.02481 q 0.04961,-0.1984375 0.09922,-0.1984375 v 0.074414 l -0.0248,0.049609 h 0.0248 q 0,-0.024805 0.02481,-0.024805 l -0.02481,0.099219 V 6.619308 h 0.02481 V 6.4704799 h 0.02481 v 0.099219 h 0.0248 l 0.02481,-0.099219 h 0.0248 v 0.074414 q 0,0.055811 -0.0248,0.099219 0.0186,0.1488281 0.07441,0.1488281 -0.02481,0.049609 -0.02481,0.074414 v 0.024805 h 0.02481 q 0.07441,-0.2976562 0.07441,-0.4216796 h 0.04961 v 0.2480468 q 0,0.068213 0.04961,0.1488282 -0.04961,0.0062 -0.04961,0.049609 0,0.1736328 0.173633,0.1736328 0,0.018604 0.02481,0.1488282 -0.02481,0.043408 -0.02481,0.099219 0.124024,-0.024805 0.124024,-0.2976562 h 0.0248 v 0.1736328 q 0,0.1426269 -0.04961,0.4960937 l 0.09922,-0.049609 q 0,0.024805 0.0248,0.024805 l 0.0248,-0.049609 V 7.1402064 l -0.0248,-0.1240234 q 0.04961,0 0.04961,-0.049609 -0.05581,0 -0.07441,-0.2480469 0.08062,-0.5457031 0.173633,-0.5457031 -0.02481,0.142627 -0.124024,0.396875 l 0.04961,0.024805 q 0.0248,-0.043408 0.0248,-0.099219 h 0.02481 v 0.099219 q -0.02481,0 -0.02481,0.024805 h 0.02481 q 0.07441,-0.179834 0.07441,-0.2232422 l 0.04961,0.024805 q 0.0248,-0.099219 0.0248,-0.1736328 l 0.04961,0.024805 v -0.099219 h 0.02481 q 0,0.1240235 -0.02481,0.1240235 -0.03101,0 -0.04961,0.1984375 0.09922,-0.080615 0.09922,-0.099219 l -0.02481,-0.049609 q 0.02481,-0.049609 0.02481,-0.074414 h 0.0248 q 0,0.2728515 0.04961,0.2728515 0.02481,-0.018604 0.02481,-0.2232422 h 0.0248 q 0,0.2232422 0.04961,0.2232422 h 0.0248 l 0.02481,-0.1240234 h 0.02481 v 0.049609 l -0.02481,0.1736328 v 0.074414 h 0.02481 q 0,-0.080615 0.04961,-0.1984375 h 0.02481 v 0.074414 l -0.02481,0.049609 h 0.02481 q 0.0248,-0.043408 0.0248,-0.099219 0.04961,0 0.04961,0.1488281 h 0.0248 v -0.099219 l -0.0248,-0.1240234 v -0.024805 h 0.0248 q 0.09922,0.3038574 0.09922,0.3472656 h 0.02481 q 0,-0.1364258 0.09922,-0.396875 h 0.0248 v 0.049609 l -0.04961,0.3472656 v 0.074414 h 0.02481 V 6.7185267 l 0.04961,0.024805 v -0.074414 h 0.02481 q 0.0248,0.1922363 0.0248,0.4216796 h 0.0248 q 0.09922,-0.4774902 0.09922,-0.4960937 h 0.02481 l -0.04961,0.4216797 v 0.049609 h 0.02481 l 0.04961,-0.3472657 h 0.02481 V 7.090597 q 0.0062,0.049609 0.04961,0.049609 0,-0.1488281 0.02481,-0.1488281 l -0.02481,-0.049609 V 6.6689174 h 0.02481 l 0.04961,0.5953125 h 0.02481 q 0.02481,-0.1364258 0.02481,-0.2728516 h 0.0248 v 0.2728516 h 0.02481 V 6.9169642 h 0.02481 q 0.04961,0.2480469 0.04961,0.2976563 h 0.02481 v -0.074414 l -0.07441,-0.5705078 v -0.049609 h 0.0248 Q 41.3562,7.090597 41.3562,7.1650111 h 0.0248 v -0.049609 l -0.09922,-0.4464843 v -0.024805 h 0.0248 l 0.198438,0.6945312 h 0.0248 v -0.024805 l -0.0248,-0.099219 v -0.024805 h 0.0248 q 0.04961,0.1550293 0.04961,0.1984375 l 0.04961,-0.024805 v 0.049609 q 0.04961,0 0.04961,-0.074414 0,-0.1364258 -0.04961,-0.3720703 v -0.024805 h 0.02481 q 0,0.037207 0.148828,0.5705078 l 0.04961,-0.024805 0.04961,0.2480469 0.04961,-0.024805 q 0,0.1488281 0.04961,0.1488281 0,-0.111621 0.02481,-0.3224609 h 0.02481 q 0.02481,0.2108399 0.02481,0.3224609 h 0.0248 V 7.5866908 h 0.02481 l 0.0248,0.1240234 h 0.0248 q 0,-0.074414 0.04961,-0.074414 v 0.049609 l 0.04961,-0.024805 q 0.0124,0.099219 0.07441,0.099219 v -0.049609 l 0.04961,0.024805 q 0,-0.024805 0.02481,-0.024805 0,0.024805 0.02481,0.024805 V 7.7107142 Q 42.273973,7.487472 42.273973,7.4626673 h 0.02481 L 42.050731,7.1154017 h 0.02481 Q 41.877098,6.7061244 41.877098,6.693722 41.492625,6.3588588 41.281786,6.3464564 v -0.024805 l -0.04961,0.024805 q -0.124023,-0.068213 -0.124023,-0.099219 h 0.04961 V 6.222433 Q 40.643065,6.0488002 40.587254,6.0488002 v 0.024805 Q 40.184178,5.9247767 39.694286,5.825558 l -0.07441,-0.099219 0.04961,-0.6449219 h 0.02481 v 0.074414 q 0,0.1302247 -0.04961,0.5208985 v 0.024805 h 0.02481 q 0.07441,-0.2666504 0.07441,-0.4464844 h 0.02481 v 0.1488281 q -0.02481,0.1302246 -0.02481,0.1488281 v 0.024805 h 0.02481 v -0.074414 h 0.0248 v 0.1736328 h 0.02481 l 0.02481,-0.1736328 0.04961,0.024805 0.02481,-0.1736329 h 0.0248 v 0.099219 l 0.04961,-0.024805 q 0,0.074414 0.0248,0.1736328 h 0.02481 L 40.016746,5.428683 V 5.2302455 h 0.02481 q 0,0.2976563 0.07441,0.2976563 v 0.049609 q 0.03721,0 0.07441,-0.074414 h -0.07441 v -0.099219 h 0.02481 v 0.074414 h 0.0248 V 5.3046596 l 0.09922,0.1488281 q 0,-0.024805 0.02481,-0.024805 0,0.024805 0.02481,0.024805 0,-0.074414 0.04961,-0.074414 v 0.049609 h 0.02481 V 5.2550502 h 0.0248 l 0.02481,0.1736328 h 0.02481 v -0.074414 q -0.02481,-0.3100585 -0.02481,-0.3720703 z m 0.719336,0 h 0.04961 l 0.02481,0.1240235 q -0.05581,0 -0.07441,-0.1240235 z m -0.37207,0.024805 h 0.0248 v 0.074414 h -0.0248 z m -0.868164,0.024805 h 0.0248 v 0.074414 h -0.0248 z m 0.347265,0 h 0.02481 l 0.02481,0.1736328 v 0.1736328 h -0.02481 q 0,-0.1674316 -0.02481,-0.2976562 z m -2.530078,0.024805 q 0.07441,0.1240234 0.07441,0.1984375 -0.03721,0 -0.124023,-0.1736328 z m 1.810742,0 h 0.02481 v 0.074414 h -0.02481 z m 1.066602,0 h 0.02481 v 0.074414 h -0.02481 z m 0.124023,0 h 0.0248 v 0.049609 h -0.0248 z m 0.669727,0 q 0.03721,0 0.07441,0.074414 l -0.02481,0.1240234 h -0.0248 q 0,-0.062012 -0.02481,-0.1984375 z m -3.869531,0.049609 q 0.04961,0.0062 0.04961,0.049609 v 0.024805 q -0.04961,0 -0.04961,-0.049609 z m 3.224609,0 h 0.02481 v 0.1240234 h -0.02481 z m -1.314648,0.024805 h 0.0248 v 0.074414 h -0.0248 z m 0.892968,0 h 0.02481 v 0.1488281 h -0.02481 z m 0.347266,0 h 0.02481 v 0.049609 h -0.02481 z m -1.190625,0.024805 h 0.02481 v 0.1240235 h -0.02481 z m 0.04961,0.049609 h 0.02481 v 0.1736328 q 0,0.049609 -0.04961,0.049609 v -0.024805 q 0.0248,-0.1364258 0.0248,-0.1984375 z m -0.496093,0.049609 h 0.0248 q 0.03721,0 0.07441,0.074414 h -0.0248 q -0.03721,0 -0.07441,-0.074414 z m 1.041797,0.024805 h 0.0248 v 0.099219 h -0.0248 z m -0.620118,0.024805 h 0.02481 v 0.099219 h -0.02481 z m 0.768946,0 h 0.0248 v 0.099219 h -0.0248 z m 1.885156,0.1488281 h 0.0248 v 0.049609 h -0.0248 z m -3.001367,0.024805 h 0.07441 v 0.024805 h -0.07441 z m 0.396875,0 h 0.0248 v 0.049609 h -0.0248 z m -0.496094,0.049609 q 0.04961,0.0062 0.04961,0.049609 v 0.024805 q -0.04961,0 -0.04961,-0.049609 z m 0.396875,0 h 0.04961 v 0.074414 h -0.0248 q 0,-0.024805 -0.02481,-0.074414 z m 0.173633,0 v 0.049609 q 0,0.049609 -0.04961,0.049609 v -0.049609 q 0.0062,-0.049609 0.04961,-0.049609 z m -0.694531,0.024805 h 0.0248 v 0.049609 h -0.0248 z m 0.297656,0 h 0.04961 q 0,0.055811 0.04961,0.099219 v 0.074414 h 0.0248 v 0.049609 h -0.198437 q 0.06201,-0.080615 0.07441,-0.2232422 z m -0.272852,0.049609 q 0.04961,0.0062 0.04961,0.049609 h -0.04961 z m 0.471289,0 h 0.02481 v 0.049609 l 0.04961,-0.024805 v 0.024805 l -0.0248,0.049609 v 0.024805 h 0.0248 l 0.02481,-0.1240235 h 0.02481 l 0.04961,0.1240235 v 0.024805 h -0.02481 v -0.049609 h -0.04961 l 0.02481,0.049609 -0.173633,0.024805 V 5.6519252 l 0.04961,0.024805 z m -0.37207,0.024805 q 0.0248,0 0.0248,0.024805 l 0.04961,-0.024805 h 0.02481 v 0.099219 h -0.04961 l -0.04961,-0.024805 q 0,0.024805 -0.02481,0.024805 v -0.024805 q 0.02481,-0.049609 0.02481,-0.074414 z m -0.42168,0.099219 h 0.04961 q 0,0.049609 -0.04961,0.049609 z m -0.347265,0.024805 h 0.0248 v 0.049609 h -0.0248 z m 0.570508,0 h 0.0248 v 0.074414 h -0.0248 z m -1.240235,0.024805 q 0.06201,0 0.124024,0.2976563 v 0.049609 q -0.09922,0 -0.09922,0.049609 h -0.07441 V 5.9247767 q 0.0062,-0.049609 0.04961,-0.049609 l 0.02481,0.099219 h 0.02481 v -0.024805 q -0.04961,-0.099219 -0.04961,-0.1736328 z m 1.289844,0 h 0.02481 v 0.074414 h -0.02481 z m 0.694531,0 h 0.04961 v 0.024805 h -0.04961 z m -0.37207,0.049609 h 0.148828 l 0.248047,0.024805 v 0.024805 q -0.279053,0.1240234 -0.322461,0.1240234 l -0.07441,-0.1240234 z m -1.513086,0.024805 q 0.04961,0.0062 0.04961,0.049609 v 0.074414 h -0.0248 z m 1.16582,0 h 0.02481 v 0.099219 h -0.02481 z m -0.173633,0.024805 h 0.02481 v 0.1736328 h -0.02481 z m 0.992188,0.024805 v 0.049609 l -0.173633,0.1984375 v 0.024805 h 0.02481 q 0.0124,-0.099219 0.07441,-0.099219 h 0.0248 l -0.04961,0.099219 h 0.02481 q 0.0062,-0.049609 0.04961,-0.049609 0.02481,0.049609 0.02481,0.074414 0,0.055811 -0.07441,0.2976563 -0.05581,0 -0.223242,-0.4464844 l 0.04961,-0.024805 q 0.02481,0 0.02481,0.024805 0.0248,0 0.223242,-0.1488281 z m -0.198438,0.074414 h 0.04961 v 0.024805 h -0.04961 z m 0.272852,0 h 0.02481 v 0.049609 q -0.02481,0.049609 -0.02481,0.074414 h -0.02481 v -0.049609 q 0.02481,-0.049609 0.02481,-0.074414 z m -0.396875,0.024805 h 0.04961 v 0.024805 h -0.04961 z m -0.719336,0.049609 h 0.02481 v 0.099219 h -0.02481 z m 1.041797,0.049609 h 0.02481 v 0.049609 h -0.02481 z m -0.04961,0.074414 v 0.074414 h 0.0248 v -0.074414 z m -2.009179,0 h 0.07441 v 0.024805 h -0.07441 z m 0.942578,0 h 0.02481 v 0.049609 h -0.02481 z m 1.5875,0 h 0.0248 v 0.049609 h -0.0248 z m -2.604492,0.024805 h 0.07441 v 0.024805 h -0.07441 z m 1.389062,0 h 0.02481 v 0.074414 h -0.02481 z m 0.892969,0.024805 h 0.02481 v 0.049609 h -0.02481 z m -0.79375,0.024805 h 0.0248 v 0.1240234 q -0.0248,0.049609 -0.0248,0.074414 h -0.02481 v -0.024805 q 0.02481,-0.099219 0.02481,-0.1736328 z m 1.016992,0 h 0.02481 v 0.1240234 h -0.02481 z m 0.496094,0 h 0.02481 v 0.1240234 h -0.02481 z m -0.744141,0.024805 h 0.02481 v 0.024805 l -0.02481,0.1240234 h -0.0248 v -0.074414 q 0.0248,-0.049609 0.0248,-0.074414 z m 0.372071,0.024805 h 0.0248 v 0.049609 l -0.0248,0.1736328 h -0.0248 V 6.3960658 Z m 0.421679,0 h 0.02481 v 0.049609 h -0.02481 z m 0.297657,0.024805 h 0.0248 v 0.049609 h -0.0248 z m -1.63711,0.049609 h 0.02481 v 0.1984375 h -0.02481 z m 1.091406,0.024805 h 0.02481 v 0.074414 q 0,0.049609 -0.04961,0.049609 v -0.049609 q 0.0248,-0.049609 0.0248,-0.074414 z m 0.198438,0 h 0.02481 v 0.074414 h -0.02481 z m 0.322461,0 h 0.02481 v 0.099219 h -0.02481 z m -1.116211,0.024805 h 0.02481 v 0.074414 h -0.02481 z m 1.016992,0 h 0.02481 v 0.024805 l -0.02481,0.1240234 h -0.0248 v -0.074414 q 0.0248,-0.049609 0.0248,-0.074414 z m -0.07441,0.024805 h 0.02481 v 0.074414 l -0.02481,0.1488282 h -0.02481 v -0.074414 z m 0.471289,0.024805 h 0.02481 v 0.049609 h -0.02481 z m 0.37207,0 q 0.10542,0.031006 0.148829,0.1240234 h -0.02481 q -0.124024,-0.068213 -0.124024,-0.099219 z m -0.595312,0.074414 h 0.02481 v 0.049609 h -0.02481 z m -0.223242,0.024805 h 0.0248 v 0.074414 h -0.0248 z m -1.141016,0.024805 h 0.02481 v 0.049609 h -0.02481 z m 1.686719,0 h 0.0248 v 0.049609 h -0.0248 z m -2.926953,0.049609 q 0.04961,0.0062 0.04961,0.049609 v 0.024805 q -0.04961,0 -0.04961,-0.049609 z m 0.917773,0 h 0.02481 v 0.074414 h -0.02481 z m 1.860352,0.024805 h 0.0248 v 0.074414 h -0.0248 z m -3.571875,0.024805 h 0.04961 v 0.024805 h -0.04961 z m 1.761133,0 q 0.04961,0.0062 0.04961,0.049609 v 0.099219 h -0.04961 z m 2.108398,0 h 0.02481 v 0.074414 h -0.02481 z m 0.347266,0 h 0.04961 v 0.024805 h -0.04961 z m -4.167188,0.074414 h 0.02481 v 0.049609 h -0.02481 z m 0.744141,0.049609 h 0.0248 v 0.049609 h -0.0248 z m 3.249414,0.049609 h 0.0248 v 0.1240234 h -0.0248 z m -3.720703,0.049609 h 0.0248 v 0.049609 h -0.0248 z m 0.446484,0 h 0.02481 q 0.04961,0.0062 0.04961,0.049609 l -0.04961,0.024805 q 0,-0.024805 -0.02481,-0.074414 z m -0.496094,0.049609 0.04961,0.024805 q -0.02481,0.043408 -0.02481,0.099219 h -0.02481 z m 1.190625,0.074414 -0.0248,0.049609 v 0.024805 h 0.0248 q 0.04961,0 0.04961,-0.049609 z m 2.604492,-0.024805 h 0.0248 v 0.049609 h -0.0248 z m -3.745507,0.049609 h 0.0248 q 0,0.024805 0.0248,0.074414 l -0.04961,0.024805 z m 3.695898,0.049609 h 0.02481 v 0.074414 h -0.02481 z m -3.819922,0.024805 h 0.02481 v 0.049609 h -0.02481 z m 0.148828,0.049609 h 0.04961 q 0,0.049609 -0.04961,0.049609 z m 3.695899,0.024805 h 0.0248 v 0.074414 h -0.0248 z m -3.869531,0.024805 h 0.0248 v 0.049609 h -0.0248 z m 4.241601,0.024805 h 0.02481 V 7.413058 h -0.02481 z m -4.291211,0.049609 q 0.04961,0 0.04961,0.074414 v 0.024805 h -0.02481 z m 0.148828,0.024805 h 0.04961 q 0.04961,0.1736328 0.04961,0.2976563 v 0.4960937 q 0,0.05581 0.02481,0.099219 0,0.024805 -0.02481,0.024805 l 0.02481,0.1240235 v 0.049609 q 0,0.10542 -0.02481,0.2728516 0,0.024805 0.02481,0.024805 l -0.02481,0.1240234 v 3.4974612 h -0.04961 l -0.248047,0.0248 q -0.07441,-0.16123 -0.07441,-0.322461 V 8.3308314 q 0.04961,-0.5581055 0.04961,-0.5953125 h 0.02481 v 0.2976563 h 0.02481 V 7.884347 h 0.0248 v 0.074414 h 0.02481 q 0,-0.062012 0.02481,-0.1984375 l -0.02481,-0.1736328 v -0.074414 h 0.02481 q 0,0.080615 0.04961,0.3472656 h 0.02481 v -0.099219 q -0.02481,-0.049609 -0.02481,-0.074414 l 0.04961,-0.024805 V 7.809933 h 0.02481 v -0.049609 l 0.04961,0.024805 v -0.024805 q -0.06201,-0.3472656 -0.09922,-0.3472656 0.0248,-0.049609 0.0248,-0.074414 z m -0.198437,0.1736328 h 0.02481 v 0.1984375 h -0.02481 z m 3.224609,0.099219 v 0.074414 q 0.02481,0.074414 0.148828,0.074414 0.161231,-0.062012 0.173633,-0.1240234 v -0.074414 h -0.09922 q -0.06201,0 -0.223242,0.049609 z m -1.289844,-0.024805 h 0.02481 v 0.049609 h -0.02481 z m 2.604493,0 h 0.0248 v 0.049609 h -0.0248 z m 0.0248,0.1488281 v 0.049609 h 0.02481 v -0.049609 z m -2.33164,3.9191401 v 0.04961 h 0.09922 q 0.03721,0 0.07441,-0.07441 h -0.04961 z m -1.364258,0.124024 0.04961,0.02481 h 0.07441 q 0.04961,0 0.04961,-0.04961 v -0.0248 h -0.124024 q -0.04961,0.0062 -0.04961,0.04961 z m 1.463476,0.04961 v 0.07441 q 0.02481,0 0.07441,0.02481 0.198438,-0.04961 0.198438,-0.09922 z m 1.190625,0.124024 h 0.07441 q 0.04961,0 0.04961,-0.04961 h -0.07441 q -0.04961,0.0062 -0.04961,0.04961 z m -2.579687,0.148828 v 0.02481 q 0.124023,-0.03101 0.124023,-0.07442 h -0.07441 q -0.04961,0.0062 -0.04961,0.04961 z"
         style="font-style:normal;font-variant:normal;font-weight:normal;font-stretch:normal;font-size:12.7px;font-family:'California by Dirt2';-inkscape-font-specification:'California by Dirt2';fill:#8d00ff;fill-opacity:1;stroke-width:0.264583"
         id="path916" />
      <path
         d="m 47.005466,4.8581752 h 0.768946 q 0,0.074414 0.124023,0.1488281 h 0.04961 v -0.074414 h 0.07441 v 0.1736328 q 0.0062,0.049609 0.04961,0.049609 0.173633,-0.093018 0.173633,-0.2232421 0.09922,0.037207 0.09922,0.1736328 v 0.1488281 l -0.07442,0.099219 v 0.024805 h 0.07442 v 0.4216797 q 0,0.2046387 -0.248047,0.2480469 h -1.984375 l -0.07441,0.049609 q 0,-0.049609 -0.02481,-0.049609 -0.03721,0 -0.322461,0.3224609 h 0.02481 q 0.0124,-0.049609 0.124023,-0.099219 v 0.024805 q 0.02481,0 0.248047,-0.1736329 0.03721,0 0.07441,0.074414 -0.03721,0 -0.07441,0.074414 h 0.02481 q 0.0062,-0.049609 0.04961,-0.049609 0.04961,0.024805 0.07441,0.024805 l -0.02481,0.049609 0.04961,0.024805 0.04961,-0.024805 v 0.024805 l -0.04961,0.074414 q 0.04961,-0.024805 0.07441,-0.024805 h 0.02481 v 0.024805 h -0.04961 v 0.024805 h 0.04961 q 0,-0.024805 0.0248,-0.024805 0,0.024805 0.02481,0.074414 -0.06201,0.049609 -0.124024,0.049609 v 0.024805 h 0.173633 v 0.024805 h -0.04961 v 0.024805 h 0.04961 v 0.024805 h -0.09922 v 0.024805 l 0.124023,0.024805 v 0.024805 h -0.04961 v 0.024805 q 0.09302,0.0062 0.198437,0.2976563 v 0.024805 h -0.02481 v -0.049609 h -0.04961 v 0.074414 q -0.06201,0 -0.223242,-0.049609 0,0.024805 -0.02481,0.024805 0,-0.037207 -0.07441,-0.074414 l 0.0248,0.049609 v 0.024805 h -0.0248 l -0.07441,-0.049609 h -0.02481 l 0.02481,0.049609 -0.04961,0.024805 q 0,-0.037207 -0.07441,-0.074414 h -0.02481 v 0.049609 h -0.02481 l -0.07441,-0.049609 q -0.08062,0 -0.322461,0.1240234 v 0.024805 q 0.130225,0.024805 0.148828,0.024805 v 0.024805 h -0.0248 l -0.173633,-0.024805 -0.124024,0.024805 v 0.024805 l 0.223243,0.074414 v 0.024805 h -0.04961 q -0.173633,-0.024805 -0.297656,-0.024805 0,0.049609 0.173633,0.099219 v 0.024805 h -0.02481 l -0.124023,-0.024805 -0.02481,0.049609 h 0.04961 v 0.024805 h -0.04961 q 0,0.049609 0.297656,0.1240235 l 0.02481,0.049609 q -0.173633,0.086816 -0.173633,0.1240234 0.124024,-0.074414 0.198438,-0.074414 h 0.0248 l -0.07441,0.1240235 h 0.02481 q 0.08061,-0.049609 0.124023,-0.049609 v 0.024805 q 0,0.05581 -0.124023,0.074414 v 0.024805 l 0.124023,-0.024805 h 0.04961 q -0.06821,0.1488282 -0.198438,0.1488282 v 0.024805 h 0.02481 l 0.173633,-0.049609 h 0.0248 v 0.024805 h -0.04961 v 0.024805 h 0.446484 q 0.02481,0 0.02481,-0.024805 l 0.04961,0.024805 h 1.686719 q 0.372071,0 0.372071,0.2976562 v 0.6201172 q 0,0.2976562 -0.372071,0.2976562 h -0.322461 q 0,0.024805 0.09922,0.1488281 0,0.049609 -0.04961,0.049609 h -0.02481 l -0.02481,-0.099219 h -0.04961 L 47.55117,9.471847 h -0.02481 l -0.02481,-0.099219 h -0.02481 l -0.04961,0.024805 v -0.024805 l -0.04961,0.024805 q -0.09922,-0.037207 -0.09922,-0.1240234 h -0.02481 v 0.049609 h -0.0248 l -0.04961,-0.024805 v 0.049609 h -0.0248 v -0.074414 h -0.02481 q -0.04961,0 -0.04961,0.074414 h -0.0248 v -0.099219 h -0.02481 q 0,0.049609 -0.124023,0.099219 -0.04961,-0.062012 -0.04961,-0.099219 -0.0248,0 -0.0248,0.024805 l -0.04961,-0.024805 -0.04961,0.024805 q 0,-0.024805 -0.02481,-0.024805 l 0.02481,0.049609 v 0.074414 h -0.02481 l -0.02481,-0.1240235 h -0.09922 q -0.02481,0 -0.02481,0.024805 l -0.04961,-0.024805 h -0.148828 v 0.024805 h 0.04961 v 0.024805 h -0.07441 v -0.049609 h -0.04961 q -0.0248,0 -0.0248,0.024805 l -0.04961,-0.024805 h -0.0248 q -0.02481,0 -0.02481,0.024805 l -0.04961,-0.024805 h -0.02481 l -0.04961,0.024805 q 0,-0.024805 -0.02481,-0.024805 0,0.024805 -0.02481,0.024805 0,-0.024805 -0.0248,-0.024805 0,0.024805 -0.02481,0.024805 0,-0.024805 -0.02481,-0.024805 v 0.024805 q 0.04961,0.080615 0.04961,0.1488281 l -0.07442,-0.049609 q 0,0.024805 -0.0248,0.024805 -0.03721,-0.099219 -0.07441,-0.099219 0.07441,0.1736328 0.07441,0.1984375 h -0.04961 q 0,-0.074414 -0.148828,-0.1984375 v 0.024805 q 0.05581,0 0.07441,0.1240234 h -0.0248 l -0.148828,-0.1736328 0.07441,0.1240234 v 0.049609 h -0.02481 l -0.09922,-0.099219 v 0.024805 q 0.03721,0.099219 0.124024,0.099219 v 0.024805 q -0.04961,0 -0.04961,0.074414 l -0.07441,-0.049609 h -0.0248 l 0.297656,0.5953126 q 0,0.142627 0.148828,0.223242 h -0.04961 v 0.0248 q 0.117823,0 0.173633,0.04961 h 0.04961 l 0.248047,-0.0248 v 0.04961 q -0.09922,0.0248 -0.173633,0.0248 v 0.02481 h 0.124023 v -0.02481 l 0.09922,0.04961 v -0.0248 l -0.02481,-0.04961 h 0.04961 q 0,0.09922 0.248046,0.223242 v 0.02481 h -0.04961 q 0,0.05581 0.322461,0.07441 0,0.04961 0.124023,0.04961 v 0.02481 h -0.0248 q -0.186035,-0.04961 -0.248047,-0.04961 h -0.02481 v 0.0248 q 0.390674,0.167432 0.570508,0.322461 h -0.02481 l -0.09922,-0.04961 v 0.04961 q -0.161231,-0.124023 -0.297657,-0.124023 0,0.04961 0.07441,0.04961 v 0.0248 h -0.04961 q 0,0.03721 0.09922,0.07441 v -0.02481 q -0.04961,0 -0.04961,-0.04961 h 0.02481 q 0.186035,0.148828 0.248047,0.148828 v 0.0248 h -0.04961 q -0.04961,-0.0248 -0.07441,-0.0248 0,0.03101 0.173632,0.148828 h 0.02481 v -0.07441 l -0.02481,-0.04961 h 0.719336 q 0.297657,0.02481 0.297657,0.248047 v 0.744141 q 0,0.04961 -0.04961,0.04961 h -0.124023 q 0,0.130225 -0.07441,0.148828 h -0.04961 v -0.0248 l 0.04961,-0.07441 h -0.07441 l -0.148829,0.09922 h -0.173632 q -0.15503,-0.142626 -0.173633,-0.148828 h -0.04961 v 0.07441 h 0.07442 v 0.04961 q -0.04961,0 -0.04961,0.0248 l -0.124023,-0.0248 h -0.07441 l -0.148828,0.0248 q -0.117823,-0.03101 -0.198438,-0.09922 -0.04961,0.09922 -0.124023,0.09922 -0.08062,0 -0.223243,-0.09922 v 0.07441 h -0.04961 q 0,-0.124024 -0.04961,-0.124024 h -0.04961 q -0.223242,0 -0.272851,0.148828 -0.09922,0 -0.446485,-0.09922 -0.223242,0.07441 -0.297656,0.07441 h -0.02481 L 45.244334,12.3988 v 0.04961 h -0.04961 L 45.12031,12.3988 h -0.04961 v 0.04961 h -0.248047 l 0.02481,-0.04961 q 0,-0.04961 -0.04961,-0.04961 l -0.07441,0.04961 h -0.0248 q 0,-0.07441 -0.04961,-0.07441 h -0.02481 q -0.06201,0 -0.07441,0.09922 L 44.37617,12.3988 h -0.223243 q -0.124023,-0.03721 -0.124023,-0.322461 V 5.3046596 h 0.04961 v 0.024805 l -0.0248,0.049609 h 0.07441 v -0.049609 l -0.02481,-0.049609 q 0.08062,0 0.124023,-0.2728516 l 0.04961,0.024805 h 0.198437 q 0.07441,0 0.248047,-0.099219 0.04961,0.1116211 0.09922,0.1240234 0.124023,-0.074414 0.198437,-0.074414 h 0.47129 q 0,0.074414 0.04961,0.074414 0,-0.099219 0.148828,-0.099219 0.10542,0.1984375 0.173633,0.1984375 0,-0.2232421 0.07441,-0.2232421 0.223242,0.049609 0.248047,0.049609 0.130224,0 0.446484,-0.099219 0.136426,0.074414 0.223242,0.074414 0.148828,0 0.148828,-0.099219 z m 1.041797,0 0.173633,0.024805 v 0.024805 h -0.173633 z m -3.993554,0.1488281 h 0.04961 q 0,0.049609 0.02481,0.049609 -0.03721,0.099219 -0.07441,0.099219 h -0.02481 v -0.024805 z m 1.5875,0.2480469 v 0.024805 h 0.07441 l 0.0248,-0.049609 h -0.0248 q -0.04961,0.024805 -0.07441,0.024805 z m -0.322461,0.79375 q 0,0.012402 -0.02481,0.099219 v 0.024805 h 0.02481 q 0.0248,-0.086816 0.0248,-0.099219 v -0.024805 z m 0.0248,0.1488281 h 0.02481 q 0.07441,-0.099219 0.07441,-0.1488281 -0.04341,0 -0.09922,0.1488281 z m 0.07441,0.049609 h 0.02481 q 0.09922,-0.1488281 0.09922,-0.1984375 -0.03721,0 -0.124024,0.1984375 z m 0.42168,-0.1984375 -0.148828,0.1984375 h 0.02481 q 0.148828,-0.1736328 0.148828,-0.1984375 z m 0.04961,0.024805 -0.0248,0.049609 h 0.0248 l 0.02481,-0.049609 z m 0.124024,0.024805 h 0.02481 q 0,0.037207 -0.148829,0.1488281 h -0.0248 q 0,-0.037207 0.148828,-0.1488281 z m 0.620117,0.9425781 h 0.02481 v 0.049609 h -0.02481 z m -1.16582,0.3720703 h 0.04961 v 0.024805 h -0.04961 z m -0.04961,0.049609 0.223243,0.049609 v 0.024805 h -0.07441 q -0.148829,-0.024805 -0.148829,-0.074414 z m -0.124023,0.074414 v 0.024805 q 0,0.037207 0.09922,0.074414 0.04961,-0.024805 0.07441,-0.024805 0,-0.049609 -0.173633,-0.074414 z m -0.02481,0.1240234 q 0.0062,0.049609 0.04961,0.049609 v -0.049609 z m 0.173633,1.5875 v 0.024805 l 0.04961,0.024805 v -0.024805 z m 0.37207,0 v 0.024805 l 0.04961,0.024805 v -0.024805 z m 0.148829,0.024805 h 0.0248 v 0.049609 h -0.0248 z m 0.297656,0 q 0.04961,0.0062 0.04961,0.049609 h -0.04961 z m -0.818555,0.1240234 v 0.024805 l 0.04961,0.024805 v -0.024805 z m 0.248047,0.074414 h 0.02481 v 0.049609 h -0.02481 z m 0.768945,1.116211 v 0.02481 h 0.04961 v -0.02481 z m -0.198437,0.04961 v 0.0248 q 0.0248,0 0.07441,0.02481 v -0.04961 z m 0.198437,0.0248 v 0.02481 h 0.04961 v -0.02481 z m -0.0248,0.09922 q 0.0062,0.04961 0.04961,0.04961 v -0.04961 z m -1.016993,0.09922 q -0.04341,0.347266 -0.09922,0.347266 v -0.124023 q -0.04961,0.0062 -0.04961,0.04961 v 0.124023 h 0.471289 v -0.198437 h -0.0248 v 0.07441 h -0.02481 v -0.07441 l 0.02481,-0.09922 v -0.0248 h -0.02481 v 0.07441 l -0.04961,-0.02481 -0.02481,0.223242 h -0.02481 v -0.04961 l 0.02481,-0.173633 v -0.04961 h -0.02481 q 0,0.08061 -0.07441,0.272851 h -0.0248 v -0.07441 q 0.04961,-0.186035 0.04961,-0.198437 v -0.0248 h -0.02481 q -0.04961,0.229443 -0.04961,0.272851 h -0.02481 l -0.02481,-0.124023 0.02481,-0.173633 v -0.02481 z m 1.091407,0 v 0.02481 l 0.297656,0.04961 q 0,-0.07442 -0.248047,-0.07442 z m -1.21543,0.02481 v 0.07441 h 0.02481 v -0.07441 z m 1.091406,0.04961 v 0.0248 l 0.04961,0.02481 v -0.02481 z m 0.248047,0.0248 v 0.02481 h 0.07441 v -0.02481 z m -1.314648,0.02481 v 0.07441 h 0.0248 v -0.07441 z m 1.53789,0 v 0.02481 h 0.04961 v -0.02481 z m -0.04961,0.07441 q 0,0.03721 0.07441,0.07441 h 0.02481 q -0.02481,-0.04961 -0.02481,-0.07441 z m -0.967383,0.04961 v 0.124024 h 0.02481 v -0.124024 z m 0.545703,0.02481 v 0.09922 h 0.02481 v -0.09922 z m -0.595312,0.04961 v 0.04961 h 0.0248 v -0.04961 z m 0.446484,0 v 0.04961 h 0.0248 v -0.04961 z m -0.09922,0.02481 v 0.04961 h 0.02481 v -0.04961 z m 1.091407,-0.02481 h 0.04961 v 0.02481 h -0.04961 z m 0.04961,0.02481 h 0.04961 v 0.0248 h -0.04961 z m -0.198438,0.148828 v 0.0248 l 0.124024,0.02481 h 0.02481 v -0.02481 l -0.124024,-0.0248 z m -2.827734,0.372071 v 0.0248 h 0.0248 q 0.04961,0 0.04961,-0.04961 v -0.02481 h -0.0248 q -0.04961,0.0062 -0.04961,0.04961 z m 3.299024,0.347265 h 0.07441 q 0.04961,0 0.04961,-0.04961 h -0.07441 q -0.04961,0.0062 -0.04961,0.04961 z m 0.396875,0 v 0.0248 q 0.0062,0.04961 0.04961,0.04961 h 0.04961 v -0.0248 q 0,-0.04961 -0.04961,-0.04961 z m -0.347266,0.173633 v 0.02481 h 0.02481 q 0.04961,0 0.04961,-0.04961 v -0.0248 h -0.02481 q -0.04961,0.0062 -0.04961,0.04961 z m 0.198437,-0.0248 v 0.04961 q 0.04341,-0.02481 0.09922,-0.02481 v -0.04961 h -0.02481 q -0.04961,0.0248 -0.07441,0.0248 z m -1.240234,0.04961 0.04961,0.0248 0.02481,-0.04961 v -0.0248 h -0.02481 q -0.04961,0.0062 -0.04961,0.04961 z m -2.257226,0.0248 0.04961,0.02481 0.02481,-0.04961 v -0.02481 h -0.02481 q -0.04961,0.0062 -0.04961,0.04961 z m 1.314648,0 0.04961,0.02481 0.02481,-0.04961 v -0.02481 h -0.02481 q -0.04961,0.0062 -0.04961,0.04961 z m 0.198437,0 v 0.02481 h 0.02481 q 0.04961,0 0.04961,-0.04961 v -0.02481 h -0.0248 q -0.04961,0.0062 -0.04961,0.04961 z m -1.141015,0.09922 v 0.04961 h -0.04961 q 0.0062,-0.04961 0.04961,-0.04961 z"
         style="font-style:normal;font-variant:normal;font-weight:normal;font-stretch:normal;font-size:12.7px;font-family:'California by Dirt2';-inkscape-font-specification:'California by Dirt2';fill:#8d00ff;fill-opacity:1;stroke-width:0.264583"
         id="path918" />
      <path
         d="m 49.578954,4.8581752 h 1.21543 q 1.996777,0 2.629297,1.4882812 0.198437,0.5084961 0.198437,0.9673828 v 0.1488281 q 0,1.3084473 -1.265039,2.0339844 -0.254248,0.099219 -0.322461,0.099219 v 0.024805 q 1.413867,2.1828129 1.5875,2.5300779 v 0.04961 q 0,0.248046 -0.37207,0.248046 h -0.694531 q -0.254248,0 -0.446485,-0.421679 L 50.744775,9.8935267 h 0.0248 l 0.04961,0.024805 q 0,-0.024805 0.0248,-0.024805 0,0.024805 0.02481,0.024805 0,-0.024805 0.02481,-0.074414 -0.03101,0 -0.124024,-0.1240234 h 0.02481 l 0.07441,0.049609 v -0.024805 q -0.02481,0 -0.148828,-0.1736328 0.07441,0 0.07441,-0.049609 0,-0.024805 -0.173633,-0.1488281 h 0.04961 q 0.279052,0.1736328 0.32246,0.2232421 h 0.02481 L 50.843993,9.3974329 h 0.02481 q 0.08062,0.062012 0.198438,0.099219 V 9.471847 L 50.521532,9.074972 h 0.02481 q 0.359668,0.2232422 0.42168,0.2232422 L 50.422314,8.9261439 h 0.0248 q 0.341065,0.1674316 0.669727,0.3720703 v -0.024805 l -0.595313,-0.396875 h 0.02481 q 0.192236,0.099219 0.223242,0.1240235 v -0.024805 q -0.03721,0 -0.07441,-0.074414 h 0.02481 q 0.0248,0 0.347266,0.2728516 V 9.1493861 Q 50.937011,8.9571497 50.496728,8.7029017 V 8.678097 h 0.04961 q 0.279053,0.074414 0.37207,0.1488281 h 0.02481 q 0,-0.068213 -0.620117,-0.2728515 v -0.024805 h 0.04961 q 0.04341,0 0.272852,0.099219 V 8.603683 q 0.08062,0.049609 0.148828,0.049609 0,-0.049609 -0.198438,-0.099219 v -0.024805 h 0.396875 q 1.066602,0 1.339454,-0.9177734 V 7.2642299 q 0,-0.8433594 -0.892969,-1.1410157 -0.303858,-0.074414 -1.389063,-0.074414 h -0.37207 V 7.6859095 L 48.437939,7.3138392 v -0.024805 l 0.124023,0.024805 h 0.07441 v -0.024805 h -0.09922 v -0.024805 h 0.04961 q 0.204638,0.024805 0.248047,0.049609 v -0.024805 q -0.396875,-0.093017 -0.396875,-0.1240234 0.365869,-0.024805 0.496093,-0.024805 v -0.024805 q -0.322461,0 -0.322461,-0.024805 l -0.04961,-0.074414 0.02481,-0.049609 q -0.04961,-0.024805 -0.07441,-0.024805 -0.04961,0.024805 -0.07441,0.024805 V 6.0239955 h 0.0248 q 0,0.074414 0.04961,0.074414 v -0.024805 q 0,-0.043408 -0.07441,-0.2232422 0.09922,0.1240234 0.124023,0.1240234 v -0.024805 q -0.07441,-0.080615 -0.07441,-0.1240234 0.02481,-0.049609 0.02481,-0.074414 h 0.0248 q 0,0.074414 0.04961,0.074414 0,-0.024805 0.0248,-0.024805 v 0.024805 q -0.0248,0.049609 -0.0248,0.074414 0.09922,0.024805 0.09922,0.1240234 h 0.0248 v -0.099219 h 0.02481 v 0.074414 h 0.0248 v -0.024805 q 0,-0.068213 -0.173633,-0.5457031 h 0.04961 l 0.198438,0.5457031 h 0.0248 q 0,-0.074414 0.04961,-0.074414 l 0.0248,0.099219 h 0.02481 v -0.074414 q -0.04341,-0.1240234 -0.124023,-0.1240234 0,-0.043408 0.04961,-0.1488281 h -0.02481 q 0,0.024805 -0.0248,0.024805 0,-0.1736328 -0.04961,-0.1736328 0.02481,-0.037207 0.02481,-0.1488282 h 0.02481 q 0.173632,0.502295 0.173632,0.5457032 h 0.02481 q 0,-0.080615 0.02481,-0.1240235 -0.04961,-0.1302246 -0.04961,-0.1984375 v -0.024805 h 0.02481 q 0.06821,0.322461 0.124024,0.322461 -0.04961,-0.1860352 -0.04961,-0.2232422 0.02481,-0.049609 0.02481,-0.074414 -0.02481,-0.049609 -0.02481,-0.074414 v -0.024805 h 0.02481 l 0.02481,0.099219 h 0.0248 v -0.049609 l 0.04961,0.024805 v -0.049609 q 0.03721,0 0.07441,0.099219 l 0.04961,-0.024805 q 0.173633,0.074414 0.173633,0.1240235 h 0.02481 V 5.5775111 l 0.09922,0.049609 V 5.6023158 Q 49.479736,5.4782924 49.479736,5.4534877 h 0.0248 l 0.04961,0.024805 v -0.024805 q -0.03721,0 -0.07441,-0.074414 h 0.04961 q -0.04961,-0.099219 -0.148828,-0.099219 v -0.024805 h 0.07441 l 0.04961,0.024805 v -0.049609 l -0.148828,-0.024805 v -0.024805 h 0.124024 V 5.1558314 Q 49.34331,5.1310268 49.256493,5.1310268 V 5.1062221 H 49.50454 V 5.0814174 L 49.256493,5.0566127 V 5.031808 l 0.223243,-0.024805 v -0.024805 h -0.148829 v -0.024805 q 0.124024,0 0.124024,-0.049609 h -0.124024 v -0.024805 z m -0.322461,0.049609 h 0.07441 v 0.024805 h -0.07441 z m 0.04961,0.3224609 h 0.07441 v 0.024805 h -0.07441 z M 48.7604,5.2550502 h 0.0248 v 0.049609 h -0.0248 z m 0.0248,0.049609 h 0.02481 v 0.049609 h -0.02481 z m -0.0248,0.049609 h 0.0248 v 0.049609 h -0.0248 z m 0.669726,0 h 0.04961 v 0.024805 h -0.04961 z m -0.446484,0.1488282 h 0.0248 v 0.049609 h -0.0248 z m 0.09922,0.074414 h 0.0248 v 0.049609 h -0.0248 z m -0.620118,0.074414 h 0.0248 v 0.049609 h -0.0248 z m 0.42168,0.049609 v 0.049609 h 0.02481 v -0.049609 z m -0.223242,0.099219 h 0.02481 v 0.049609 h -0.02481 z m 0.396875,0.024805 v 0.024805 q 0.02481,0.049609 0.02481,0.074414 h 0.0248 v -0.024805 q -0.0248,-0.049609 -0.0248,-0.074414 z m -0.37207,0.024805 h 0.0248 v 0.074414 h -0.0248 z m -0.248047,1.1410156 h 0.04961 q 0.05581,0 0.07441,0.1240234 h -0.124023 z m 0,0.2480469 h 0.09922 v 0.024805 h -0.09922 z m 0.471289,0.5208984 h 0.04961 v 0.024805 h -0.04961 z m 0.272851,0.049609 h 0.04961 v 0.024805 h -0.04961 z m 0.42168,0.2232422 h 0.07441 v 0.024805 h -0.07441 z m -1.141016,0.1488281 h 0.0248 l 0.124023,1.1162109 h 0.02481 V 8.678097 h 0.02481 q 0.04961,0.5519043 0.04961,0.6945313 h 0.02481 V 8.8269251 h 0.0248 v 0.6201172 h 0.0248 l 0.02481,-0.1736328 V 8.4548548 h 0.02481 q 0,0.6945313 0.07441,0.6945313 0.0248,-0.099219 0.0248,-0.4464844 h 0.02481 v 0.5208984 h 0.02481 q 0.0248,-0.2480468 0.0248,-0.6201171 h 0.02481 q 0.02481,0.5208984 0.04961,0.5953124 h 0.0248 l 0.02481,-0.099219 V 8.6284876 h 0.02481 v 0.4960938 h 0.0248 l 0.02481,-0.2480469 h 0.02481 v 0.5705078 h 0.0248 V 9.2982142 q 0.04961,0 0.04961,-0.099219 0.04961,0 0.04961,0.1488282 h 0.02481 v -0.396875 q 0.0062,-0.049609 0.04961,-0.049609 v 0.049609 q 0,0.2108398 -0.02481,0.6697265 v 0.024805 h 0.02481 q 0.04961,-0.3162597 0.04961,-0.6449218 h 0.0248 v 0.4216796 q 0.04961,0 0.04961,-0.1240234 l 0.04961,0.024805 h 0.02481 V 9.0501673 h 0.0248 q 0.02481,0.756543 0.02481,1.1162107 v 2.00918 q 0,0.272851 -0.322461,0.272851 h -0.520898 q -0.396875,0 -0.396875,-0.347265 v -1.885156 q 0,-0.744141 0.0248,-2.0339847 z m 0.79375,0.5953125 h 0.02481 v 0.396875 h -0.02481 z m 1.116211,0.024805 h 0.04961 v 0.024805 h -0.04961 z m -0.248047,0.024805 h 0.04961 v 0.024805 h -0.04961 z m 0.297657,0 h 0.04961 v 0.024805 h -0.04961 z m 0.124023,0 h 0.04961 v 0.024805 h -0.04961 z m -0.07441,0.024805 h 0.04961 v 0.024805 h -0.04961 z m 0.124023,0 h 0.04961 v 0.024805 h -0.04961 z m 0.04961,0.024805 h 0.04961 v 0.024805 h -0.04961 z m -0.496094,0.024805 h 0.02481 v 0.049609 h -0.02481 z m 0.07441,0 h 0.04961 v 0.024805 h -0.04961 z m 0.248047,0.1488281 h 0.04961 v 0.024805 h -0.04961 z m -0.09922,0.049609 h 0.04961 v 0.024805 h -0.04961 z m 0.04961,0.024805 h 0.04961 v 0.024805 h -0.04961 z m 0.148828,0.1240234 h 0.04961 q 0,0.049609 -0.04961,0.049609 z m 0.09922,0 q 0.173632,0.1178223 0.173632,0.1488281 h -0.0248 Q 50.620751,9.3106165 50.620751,9.2734095 Z m 0.347265,0.049609 v 0.024805 l 0.07441,0.049609 v -0.024805 z m -0.347265,0.2480469 h 0.04961 v 0.024805 h -0.04961 z"
         style="font-style:normal;font-variant:normal;font-weight:normal;font-stretch:normal;font-size:12.7px;font-family:'California by Dirt2';-inkscape-font-specification:'California by Dirt2';fill:#8d00ff;fill-opacity:1;stroke-width:0.264583"
         id="path920" />
    </g>
  </g>
</svg>
